<?xml version="1.0" encoding="utf-8"?>
<!-- Generator: Adobe Illustrator 24.0.2, SVG Export Plug-In . SVG Version: 6.00 Build 0)  -->
<svg version="1.1" id="Capa_1" xmlns="http://www.w3.org/2000/svg" xmlns:xlink="http://www.w3.org/1999/xlink" x="0px" y="0px"
	 viewBox="0 0 91.8 101.16" style="enable-background:new 0 0 91.8 101.16;" xml:space="preserve">
<style type="text/css">
	.st0{fill:#B65A46;}
</style>
<g>
	<path class="st0" d="M38.64,65.14c-0.75,0-1.39,0-2.04,0c-5.3,0.01-10.6,0.03-15.9,0.02c-4.41-0.01-7.97-2.95-8.74-7.28
		c-0.19-1.09-0.15-2.23-0.15-3.35c-0.01-6.98-0.03-13.96,0.02-20.94c0.03-3.71,1.79-6.43,5.14-7.99c2.69-1.26,5.35-1.05,7.88,0.57
		c1.77,1.14,3.24,2.63,4.67,4.15c1.02,1.08,2.06,2.14,3.05,3.25c0.47,0.53,1.01,0.65,1.66,0.65c4.18-0.02,8.36-0.03,12.54-0.03
		c2.53,0,4.44,1.87,4.45,4.31c0.01,2.47-1.91,4.35-4.47,4.35c-4.98,0.01-9.95,0.02-14.93-0.01c-0.8-0.01-1.59-0.24-2.42-0.37
		c0,3.72,0,7.55,0,11.48c0.24,0,0.49,0,0.74,0c4.44,0,8.88,0,13.31,0c2.93,0,5.05,2.12,5.06,5.05c0,6.83,0.01,13.66-0.02,20.48
		c0,0.67,0.19,0.86,0.83,0.81c0.73-0.06,1.46-0.02,2.2-0.01c2.66,0.02,4.83,2.19,4.85,4.87c0.02,2.64-2.15,4.93-4.77,4.97
		c-2.69,0.04-5.39,0.03-8.08,0c-2.76-0.03-4.87-2.22-4.87-4.99c0-6.42,0-12.84,0-19.26C38.64,65.65,38.64,65.44,38.64,65.14z"/>
	<path class="st0" d="M87.01,70.03c0,7.41,0,14.82,0,22.23c0,1.33-0.44,1.77-1.79,1.77c-6.76,0-13.53,0-20.29,0
		c-1.49,0-1.88-0.39-1.88-1.86c0.01-12.19,0.01-24.38,0.02-36.58c0-0.87,0-0.87-0.87-0.87c-4.22,0-8.44,0-12.67,0
		c-2.53,0-4.43-1.83-4.46-4.29c-0.03-2.47,1.88-4.38,4.45-4.38c7.95-0.01,15.9,0,23.85,0c3.96,0,7.93,0,11.89,0
		c1.28,0,1.75,0.47,1.75,1.75C87.01,55.21,87.01,62.62,87.01,70.03z M75.04,66.89c0.56,0,1.12,0,1.68,0c1.1,0,2.2,0.02,3.29-0.03
		c0.74-0.03,1.26-0.6,1.29-1.29c0.04-0.72-0.44-1.32-1.19-1.46c-0.21-0.04-0.43-0.04-0.64-0.04c-2.95,0-5.9,0-8.85,0
		c-0.26,0-0.52,0.01-0.77,0.06c-0.68,0.14-1.11,0.7-1.09,1.39c0.02,0.82,0.6,1.34,1.57,1.35C71.9,66.9,73.47,66.89,75.04,66.89z
		 M74.99,76.02c1.59,0,3.19,0.01,4.78,0c0.91-0.01,1.54-0.58,1.54-1.39c0-0.85-0.63-1.42-1.65-1.42c-3.08-0.01-6.16-0.01-9.23,0
		c-1.01,0-1.66,0.56-1.67,1.4c-0.01,0.85,0.63,1.41,1.65,1.41C71.93,76.02,73.46,76.02,74.99,76.02z M74.98,57.75
		c1.57,0,3.14,0.01,4.71,0c1.02-0.01,1.63-0.57,1.61-1.44c-0.02-0.81-0.66-1.34-1.64-1.34c-3.1,0-6.2,0-9.3,0
		c-0.99,0-1.6,0.53-1.6,1.37c-0.01,0.88,0.6,1.41,1.63,1.42C71.92,57.76,73.45,57.75,74.98,57.75z M75.05,85.14
		c1.59,0,3.18,0.01,4.78-0.01c0.9-0.01,1.48-0.57,1.48-1.36c0-0.82-0.6-1.39-1.52-1.39c-3.18-0.01-6.37-0.01-9.55,0.01
		c-0.28,0-0.6,0.09-0.85,0.23c-0.56,0.34-0.73,0.89-0.59,1.51c0.14,0.6,0.68,1,1.41,1.01C71.83,85.15,73.44,85.14,75.05,85.14z"/>
	<path class="st0" d="M22.82,2.82c5.74,0.01,10.3,4.58,10.29,10.31c-0.02,5.68-4.63,10.2-10.4,10.2c-5.64,0-10.31-4.72-10.22-10.44
		C12.59,7.31,17.13,2.81,22.82,2.82z"/>
	<path class="st0" d="M9.27,66.82c0.37,0,0.64,0,0.92,0c7.67,0,15.34,0,23.01,0c1.64,0,2.61,1.33,2.1,2.83
		c-0.26,0.78-1,1.34-1.86,1.36c-0.99,0.02-1.98,0.01-2.97,0.01c-7.67,0-15.34,0-23.01,0c-1.67,0-2.44-0.77-2.44-2.45
		c0-13.1,0-26.19,0-39.29c0-1.44,0.78-2.36,2.04-2.41c1.05-0.04,1.94,0.64,2.15,1.67c0.06,0.31,0.07,0.64,0.07,0.96
		c0,12.13,0,24.25,0,36.38C9.27,66.15,9.27,66.42,9.27,66.82z"/>
	<path class="st0" d="M65.7,44.24c-3.36,0-6.72,0.01-10.08,0c-1.54-0.01-2.54-1.33-2.12-2.75c0.27-0.92,1.07-1.49,2.18-1.49
		c3.17-0.01,6.33-0.01,9.5-0.01c2.78,0,5.56-0.01,8.33,0.02c0.57,0.01,0.8-0.16,0.96-0.73c1.31-4.99,2.67-9.97,4.01-14.95
		c0.36-1.34,1.23-2.01,2.4-1.84c1.33,0.19,2.12,1.37,1.77,2.7c-1.23,4.59-2.46,9.18-3.7,13.76c-0.32,1.2-0.65,2.41-0.98,3.61
		c-0.31,1.12-1.05,1.69-2.25,1.69C72.38,44.24,69.04,44.24,65.7,44.24z"/>
	<path class="st0" d="M18.55,83.02c-2.35,0.19-4.58,0.65-6.55,1.99c-0.49,0.34-0.75,0.62-0.36,1.29c0.57,0.98,0.3,2.23-0.47,3.04
		C10.4,90.15,9.19,90.42,8.14,90c-1.06-0.42-1.83-1.42-1.68-2.57c0.17-1.33,0.43-2.67,1.16-3.84c0.86-1.38,2.1-2.37,3.56-2.99
		c5.98-2.57,11.99-2.59,17.94,0.1c1.59,0.72,2.93,1.83,3.7,3.46c0.39,0.83,0.7,1.7,0.97,2.57c0.36,1.14-0.13,2.36-1.16,3.03
		c-0.97,0.63-2.28,0.57-3.2-0.15c-0.93-0.73-1.37-2.06-0.83-3.13c0.39-0.77,0.03-1.1-0.48-1.46c-1.55-1.09-3.33-1.58-5.17-1.85
		c-0.44-0.06-0.89-0.1-1.39-0.16c-0.08,0.68-0.21,1.24,0.38,1.79c0.98,0.93,0.91,2.52-0.05,3.48c-0.96,0.96-2.52,1.01-3.51,0.12
		c-1.01-0.9-1.12-2.49-0.24-3.56C18.7,84.14,18.72,84.09,18.55,83.02z"/>
	<path class="st0" d="M24.39,72.21c0,1.96,0,3.91,0,5.94c-2.88-0.44-5.72-0.49-8.61,0.01c0-2.01,0-3.96,0-5.96
		C18.63,72.21,21.49,72.21,24.39,72.21z"/>
</g>
</svg>
