<?xml version="1.0" encoding="UTF-8"?>
<!DOCTYPE svg PUBLIC "-//W3C//DTD SVG 1.1//EN" "http://www.w3.org/Graphics/SVG/1.1/DTD/svg11.dtd">
<!-- Creator: CorelDRAW 2021 (64-Bit) -->
<svg xmlns="http://www.w3.org/2000/svg" xml:space="preserve" width="210mm" height="297mm" version="1.1" style="shape-rendering:geometricPrecision; text-rendering:geometricPrecision; image-rendering:optimizeQuality; fill-rule:evenodd; clip-rule:evenodd"
viewBox="0 0 21000 29700"
 xmlns:xlink="http://www.w3.org/1999/xlink"
 xmlns:xodm="http://www.corel.com/coreldraw/odm/2003">
 <defs>
  <style type="text/css">
   <![CDATA[
    .fil0 {fill:#1363AB}
    .fil1 {fill:#FEFEFE}
   ]]>
  </style>
 </defs>
 <g id="Capa_x0020_1">
  <metadata id="CorelCorpID_0Corel-Layer"/>
  <circle class="fil0" cx="10495.17" cy="25998.14" r="458.34"/>
  <path class="fil1" d="M10336.85 25720.83c-13.35,2.94 -21.88,7.15 -33.68,11.6 -3.18,2.06 -7.98,4.34 -11.33,6.23 -3.27,1.84 -7.4,4.45 -10.41,6.74 -3.68,2.8 -7.01,4.98 -10.11,7.79 -1.86,1.69 -3.03,2.29 -4.75,3.88 -2.62,2.44 -1.45,2.7 -4.74,4.26 -0.38,0.92 0.38,-0.17 -0.95,1.48 -6.22,7.73 -12.27,10.44 -22.45,27.61 -1.34,2.27 -5.03,9.08 -6.91,10.63 -0.12,2.12 -6.34,15.12 -7.76,19.09 -1.31,3.65 -2.34,6.64 -3.37,10.24l-2.69 9.59c-0.05,0.11 -0.23,0.58 -0.27,0.48 -0.04,-0.11 -0.17,0.32 -0.29,0.45 0.32,4.29 -1.13,8.62 -1.69,13.1 -2.6,20.78 -1.49,136.77 -1.51,163.95 -0.02,19.38 -0.68,39.83 -0.03,59.07 0.22,9.84 0.05,19.86 0.04,29.72 -0.01,7.06 1.09,24.47 0.28,29.58l2.71 15.29c0.97,5.2 2.07,9.54 3.54,14.39 8.18,27.16 21.38,48.73 40.38,67.75 20.45,20.46 57.48,42.97 98.38,44.85 20.34,1.48 43.48,0.65 64.43,0.59 21.04,-0.07 43.34,-0.69 64.24,0 36.3,0.87 78.7,-0.02 116.21,0.01 6.23,0.01 13.01,0.28 19.17,-0.12 3.98,-0.26 15.62,-1.65 18.68,-0.96l2.21 -1c3.11,-0.92 11.53,-1.95 20.43,-4.68 4.45,-1.37 18.22,-7.08 20.62,-7.1 1.22,-1.49 14.91,-8.5 19.51,-11.48l17.84 -13.24 3.76 -3.79c7.89,-7.41 11.46,-11.49 18.36,-20.27 2.16,-2.75 4.37,-6.47 6.75,-9.2 1.13,-2.67 3.83,-6.6 5.39,-9.42 1.8,-3.25 3.27,-6.3 5.05,-9.98 2.95,-6.11 6.5,-15.09 8.24,-22.04 1.59,-5.88 2.84,-10.6 3.92,-16.58 1.2,-6.6 1.27,-12.19 2.2,-18.64 0.95,-9.09 0.15,-198.03 0.14,-206.56 -0.03,-49.43 3.72,-89.75 -23.11,-132.03 -15.82,-24.92 -28.57,-35.71 -51.87,-51.85 -7.6,-5.27 -24.59,-12.96 -35.35,-16.18 -31.24,-9.36 -62.03,-6.98 -96.31,-6.99l-155.39 -0.03c-16.23,0.03 -35.26,-0.89 -51.12,0.13l-26.39 3.64zm141.25 148.13c-13.2,1.75 -21.06,4.75 -33.05,8.19 -14.54,7.01 -18.26,6.75 -33.74,18.18 -2.26,1.67 -8.15,6.48 -10.31,7.15 -1.39,3.5 -6.77,6.62 -9.47,9.57l-9.07 10.25c-6.53,7.88 -8.65,12.52 -13.45,20.16 -1.33,2.12 -0.46,1.21 -2.23,2.4l-9.18 22.72c-0.48,1.43 -0.76,2.47 -1.17,3.8 -0.2,0.65 -0.47,1.51 -0.78,2.17 -0.58,1.22 -0.3,0.75 -0.96,1.51 0.23,2.52 -2.82,14.9 -3.4,19.16 -0.9,6.64 -1.26,13.54 -1.26,20.87 -0.02,20.01 2.19,22.81 5.44,40.09 7.77,19.86 6.86,21.95 19.57,41.5 7.05,10.84 19.99,25.09 29.45,32.09 19.6,14.5 37.16,24.38 62.81,29.62 10.06,2.05 17.05,1.81 27.27,2.91 6.93,0.16 14.61,-0.32 21.19,-1.2 4.86,-0.65 14.91,-3.15 18.43,-2.91 1.93,-1.89 6.54,-2.52 9.44,-3.55 3.46,-1.24 6.11,-2.17 9.41,-3.51 3.87,-1.58 14.91,-7.63 17.33,-8.02 0.12,-0.16 0.34,-0.57 0.41,-0.43 0.07,0.13 0.32,-0.33 0.42,-0.42 0.12,-0.1 0.69,-0.6 0.86,-0.72 7.34,-5.55 10.87,-6.47 21.98,-15.97 2.7,-2.31 4.25,-5.26 6.79,-6.43 1.45,-2.83 7.78,-8.39 10.87,-12.39l15.25 -22.82c1.99,-5.93 5.57,-11.73 7.82,-18.48 2.07,-6.2 5.05,-14.03 5.73,-20.51 2.89,-10.27 3.46,-26.88 2.79,-38.17 -0.83,-14.08 -3.32,-23.03 -6.52,-35.97 -2.63,-5.82 -4.41,-11.83 -7.03,-17.6 -4.91,-10.77 -12.07,-21.37 -19.07,-30.32l-5.67 -6.49c-7.68,-8.91 -22.66,-21.04 -34.04,-27.51 -10.43,-5.93 -21.11,-10.89 -33.99,-14.53 -18.92,-5.36 -38.56,-6.72 -58.87,-4.39zm96.84 218.17c4.1,-2.71 13.36,-16.49 16.56,-23.11 2.72,-5.62 10.77,-23.8 9.72,-30.03 1.58,-2.6 2.02,-10.62 2.22,-13.86 0.84,-14.03 -1.75,-29.5 -6.39,-42.33 -10.99,-30.4 -35.43,-54.16 -66.09,-64.32 -8.92,-2.96 -17.03,-4.7 -27.05,-5.42 -4.02,-0.29 -25.4,-0.51 -29.32,2.74 -9.02,-1.17 -33.41,11.51 -42.59,18.78l-3.65 2.84c-0.13,0.11 -0.29,0.25 -0.41,0.36l-1.17 1.28c-7.55,4.66 -26.29,28.39 -29.48,42.35 -2.98,4.49 -5.98,20.22 -6.66,26.52 -0.87,8.24 -0.84,15.86 0.07,24.25 0.24,2.18 0.42,5.44 1.72,7.19 -0.88,7.03 7.05,24.73 10.09,30.51 8.86,16.85 24.47,32.98 40.43,41.95 5.31,2.98 22.85,12.05 30.22,11.11 1.47,1.28 0.51,0.78 3.11,1.43 0.8,0.2 2.86,0.47 3.64,0.58 8.76,1.3 16.22,1.66 25.16,0.99 6.13,-0.45 24.3,-3.5 28.16,-6.33 7.13,-1.53 18.06,-8.02 23.41,-11.64 6.94,-4.7 13.36,-9.93 18.3,-15.84zm68.75 -268.35c-35.22,10.13 -19.7,58.63 12.59,50.8 12.11,-2.94 22.65,-15.59 19.27,-31.21 -2.65,-12.25 -15.78,-24.22 -31.86,-19.59zm-273.59 420.03l250.57 0c63.25,0 115,-51.75 115,-115l0 -251.55c0,-63.25 -51.75,-115.01 -115,-115.01l-250.57 0c-63.25,0 -115,51.76 -115,115.01l0 251.55c0,63.25 51.75,115 115,115z"/>
 </g>
</svg>
