<?xml version="1.0" encoding="utf-8"?>
<!-- Generator: Adobe Illustrator 24.0.2, SVG Export Plug-In . SVG Version: 6.00 Build 0)  -->
<svg version="1.1" id="Capa_1" xmlns="http://www.w3.org/2000/svg" xmlns:xlink="http://www.w3.org/1999/xlink" x="0px" y="0px"
	 viewBox="0 0 589.1 194.5" style="enable-background:new 0 0 589.1 194.5;" xml:space="preserve">
<style type="text/css">
	.st0{fill:#38AB6E;}
	.st1{fill:#FFFFFF;}
	.st2{clip-path:url(#SVGID_2_);}
	.st3{clip-path:url(#SVGID_4_);fill:#ECBD1F;}
	.st4{clip-path:url(#SVGID_6_);fill:#ECBD1F;}
	.st5{clip-path:url(#SVGID_8_);fill-rule:evenodd;clip-rule:evenodd;fill:#FFFFFF;}
	.st6{clip-path:url(#SVGID_10_);fill-rule:evenodd;clip-rule:evenodd;fill:#FFFFFF;}
	.st7{clip-path:url(#SVGID_12_);fill-rule:evenodd;clip-rule:evenodd;fill:#FFFFFF;}
	.st8{clip-path:url(#SVGID_14_);fill:#3A9B46;}
	.st9{clip-path:url(#SVGID_16_);fill-rule:evenodd;clip-rule:evenodd;fill:#287138;}
	.st10{clip-path:url(#SVGID_18_);fill:#287138;}
	.st11{clip-path:url(#SVGID_20_);fill:#287138;}
	.st12{clip-path:url(#SVGID_22_);fill-rule:evenodd;clip-rule:evenodd;fill:#287138;}
	.st13{clip-path:url(#SVGID_24_);fill-rule:evenodd;clip-rule:evenodd;fill:#287138;}
	.st14{clip-path:url(#SVGID_26_);fill:none;stroke:#FFFFFF;stroke-width:4;stroke-linecap:round;stroke-linejoin:round;}
	.st15{clip-path:url(#SVGID_28_);fill:#ED1C26;}
	.st16{clip-path:url(#SVGID_30_);fill:#FFFEFE;}
	.st17{clip-path:url(#SVGID_32_);fill:#010101;}
	.st18{clip-path:url(#SVGID_34_);fill:#010101;}
	.st19{clip-path:url(#SVGID_36_);fill:#9F9F84;}
	.st20{clip-path:url(#SVGID_38_);}
	.st21{clip-path:url(#SVGID_40_);fill:#606161;}
	.st22{clip-path:url(#SVGID_42_);fill:#FADB0F;}
	.st23{clip-path:url(#SVGID_44_);fill:#1562AC;}
	.st24{clip-path:url(#SVGID_46_);fill-rule:evenodd;clip-rule:evenodd;fill:#FFFFFF;}
	.st25{clip-path:url(#SVGID_48_);fill-rule:evenodd;clip-rule:evenodd;fill:#1562AC;}
	.st26{clip-path:url(#SVGID_50_);fill-rule:evenodd;clip-rule:evenodd;fill:#FFFFFF;}
	.st27{clip-path:url(#SVGID_52_);fill-rule:evenodd;clip-rule:evenodd;fill:#FFFFFF;}
	.st28{clip-path:url(#SVGID_54_);fill-rule:evenodd;clip-rule:evenodd;fill:#3C99C2;}
	.st29{clip-path:url(#SVGID_56_);fill-rule:evenodd;clip-rule:evenodd;fill:#FFFFFF;}
	.st30{clip-path:url(#SVGID_58_);fill-rule:evenodd;clip-rule:evenodd;fill:#57C2EE;}
	.st31{clip-path:url(#SVGID_60_);}
	.st32{clip-path:url(#SVGID_62_);}
	.st33{clip-path:url(#SVGID_64_);fill:url(#SVGID_65_);}
	.st34{clip-path:url(#SVGID_67_);fill:#ECBD1F;}
	.st35{clip-path:url(#SVGID_69_);fill:#ECBD1F;}
	.st36{clip-path:url(#SVGID_71_);fill-rule:evenodd;clip-rule:evenodd;fill:#FFFFFF;}
	.st37{clip-path:url(#SVGID_73_);fill-rule:evenodd;clip-rule:evenodd;fill:#FFFFFF;}
	.st38{clip-path:url(#SVGID_75_);fill-rule:evenodd;clip-rule:evenodd;fill:#FFFFFF;}
	.st39{clip-path:url(#SVGID_77_);fill:#3A9B46;}
	.st40{clip-path:url(#SVGID_79_);fill-rule:evenodd;clip-rule:evenodd;fill:#287138;}
	.st41{clip-path:url(#SVGID_81_);fill:#287138;}
	.st42{clip-path:url(#SVGID_83_);fill:#287138;}
	.st43{clip-path:url(#SVGID_85_);fill-rule:evenodd;clip-rule:evenodd;fill:#287138;}
	.st44{clip-path:url(#SVGID_87_);fill-rule:evenodd;clip-rule:evenodd;fill:#287138;}
	.st45{clip-path:url(#SVGID_89_);fill:none;stroke:#FFFFFF;stroke-width:8.027;stroke-linecap:round;stroke-linejoin:round;}
	.st46{clip-path:url(#SVGID_91_);fill:#ED1C26;}
	.st47{clip-path:url(#SVGID_93_);fill:#FFFEFE;}
	.st48{clip-path:url(#SVGID_95_);fill:#010101;}
	.st49{clip-path:url(#SVGID_97_);fill:#010101;}
	.st50{clip-path:url(#SVGID_99_);fill:#9F9F84;}
	.st51{clip-path:url(#SVGID_101_);}
	.st52{clip-path:url(#SVGID_103_);fill:#606161;}
	.st53{clip-path:url(#SVGID_105_);fill:#FADB0F;}
	.st54{clip-path:url(#SVGID_107_);fill:#1562AC;}
	.st55{clip-path:url(#SVGID_109_);fill-rule:evenodd;clip-rule:evenodd;fill:#FFFFFF;}
	.st56{clip-path:url(#SVGID_111_);fill-rule:evenodd;clip-rule:evenodd;fill:#1562AC;}
	.st57{clip-path:url(#SVGID_113_);fill-rule:evenodd;clip-rule:evenodd;fill:#FFFFFF;}
	.st58{clip-path:url(#SVGID_115_);fill-rule:evenodd;clip-rule:evenodd;fill:#FFFFFF;}
	.st59{clip-path:url(#SVGID_117_);fill-rule:evenodd;clip-rule:evenodd;fill:#3C99C2;}
	.st60{clip-path:url(#SVGID_119_);fill-rule:evenodd;clip-rule:evenodd;fill:#FFFFFF;}
	.st61{clip-path:url(#SVGID_121_);fill-rule:evenodd;clip-rule:evenodd;fill:#57C2EE;}
</style>
<g>
	<path class="st0" d="M551.4,119.1v3.5h-5.9v-13.9h5.9c0.8,2.9,2,5.2,3.6,6.7s3.7,2.3,6.1,2.3c1.9,0,3.5-0.6,4.7-1.8
		c1.3-1.2,1.9-2.7,1.9-4.4c0-1.6-0.6-2.8-1.7-3.8c-1.1-1-3-1.8-5.6-2.6l-4.7-1.3c-3.8-1-6.5-2.5-8.2-4.3s-2.5-4.2-2.5-7.1
		c0-3.3,1.2-6.1,3.5-8.4c2.4-2.3,5.3-3.4,8.8-3.4c1.9,0,3.6,0.3,5.3,0.9c1.6,0.6,3,1.5,4.2,2.6v-2.7h5.7v12.2h-5.7
		c-0.6-2.4-1.7-4.2-3-5.4c-1.4-1.2-3.1-1.8-5.2-1.8c-1.8,0-3.2,0.5-4.4,1.5c-1.1,1-1.7,2.2-1.7,3.7c0,1.3,0.4,2.3,1.1,3.1
		s2,1.4,3.8,1.9l5,1.4c4.6,1.3,7.8,3,9.7,4.9s2.8,4.5,2.8,7.7c0,3.8-1.2,6.9-3.5,9.2c-2.3,2.3-5.4,3.5-9.3,3.5c-2.2,0-4.2-0.4-6-1.1
		C554.3,121.6,552.7,120.6,551.4,119.1 M512.9,116.9h4.3v5.7h-15.7v-5.7h4.4V87.3h-4.4v-5.7H514l14.6,26.8V87.3h-4.4v-5.7h15.7v5.7
		h-4.4v36.2h-6.2l-16.5-31.1V116.9L512.9,116.9z M463.1,102.1c0,4.1,1.3,7.6,3.9,10.3c2.6,2.7,5.9,4.1,9.8,4.1s7.2-1.4,9.8-4.1
		c2.6-2.7,3.9-6.1,3.9-10.3c0-4.2-1.3-7.6-3.9-10.3c-2.6-2.7-5.9-4.1-9.8-4.1s-7.1,1.4-9.8,4.1C464.4,94.5,463.1,98,463.1,102.1z
		 M455.3,102.1c0-6.1,2-11.1,6.1-15.2s9.2-6.1,15.4-6.1c2.8,0,5.5,0.4,7.9,1.3s4.6,2.2,6.5,3.9c2.3,2.1,4.1,4.5,5.4,7.3
		c1.2,2.7,1.8,5.7,1.8,8.9c0,2.8-0.5,5.4-1.5,7.9s-2.4,4.7-4.2,6.7c-2.1,2.2-4.4,3.9-7.1,5s-5.6,1.7-8.8,1.7
		c-6.1,0-11.2-2.1-15.4-6.1C457.3,113.2,455.3,108.1,455.3,102.1z M447.7,116.9h4.4v5.7H436v-5.7h4.4V87.3H436v-5.7h16.1v5.7h-4.4
		V116.9z M421.2,116.9h5.3v5.7h-18v-5.7h5.3V87.3h-5.4v5.9h-6.6V81.6H433v11.6h-6.6v-5.9H421v29.6
		C421,116.9,421.2,116.9,421.2,116.9z M394.7,116.9h4.4v5.7H383v-5.7h4.4V87.3H383v-5.7h16.1v5.7h-4.4V116.9z M356.7,81.6
		c7.5,0,13.2,1.8,17.2,5.3c3.9,3.5,5.9,8.6,5.9,15.3c0,6.7-2,11.7-5.9,15.3c-3.9,3.5-9.6,5.3-17.2,5.3h-16.5v-5.7h4.4V87.3h-4.4
		v-5.7H356.7z M352,87.3v29.7h5c5,0,8.8-1.3,11.4-3.8s3.9-6.2,3.9-11c0-4.9-1.3-8.5-3.9-11.1c-2.6-2.5-6.4-3.8-11.4-3.8
		C357,87.3,352,87.3,352,87.3z M304.6,122.6v-5.7h4.4V87.3h-4.4v-5.7h31.3v11.2h-6.4v-5.5h-13.2v10.3h11v6.2h-11v13.2h12.9v-6.4h6.6
		v12.1L304.6,122.6L304.6,122.6z M282.9,116.9h5.3v5.7h-17.1v-5.7h4.4V87.3h-4.4v-5.7h14c5.7,0,10.1,1.1,13,3.3
		c2.9,2.2,4.4,5.5,4.4,9.8s-1.5,7.6-4.4,9.8c-2.9,2.2-7.3,3.3-13,3.3h-2.3v9.1L282.9,116.9L282.9,116.9z M282.9,87.2v14.9h2.3
		c3.4,0,5.9-0.6,7.5-1.8c1.6-1.2,2.5-3.1,2.5-5.6s-0.8-4.4-2.4-5.6s-4.1-1.8-7.5-1.8L282.9,87.2L282.9,87.2z M250.9,107.3l-6.1,9.6
		h3.4v5.7h-14.9v-5.7h3.6l10.2-14.6l-10-15h-3.5v-5.7h15.1v5.7h-3.1l5.8,9.3l5.9-9.3h-3.4v-5.7h14.3v5.7h-2.9L255,101.6l10.4,15.3
		h3.6v5.7h-15.3v-5.7h3.3L250.9,107.3z M197.9,122.6v-5.7h4.4V87.3h-4.4v-5.7h31.3v11.2h-6.4v-5.5h-13.1v10.3h11v6.2h-11v13.2h12.9
		v-6.4h6.6v12.1L197.9,122.6L197.9,122.6z"/>
	<path class="st0" d="M294.8,73.1h5v5.7h-17.5v-5.7h5V59.9l-10.8-16.4h-3.2v-5.7h15v5.7h-3.2l6.3,10.2l6.1-10.2h-3.7v-5.7h14.9v5.7
		h-3.3l-10.7,16.4v13.2C294.7,73.1,294.8,73.1,294.8,73.1z M248.3,73.1h4.4v5.7H238v-5.7h3.3l10.4-29.7h-4.4v-5.7h21v5.7h-4.7
		l10.2,29.7h3.8v5.7H262v-5.7h4.4l-2.5-7.5H251L248.3,73.1z M252.6,59.9h9.3L257.3,46L252.6,59.9z M214.4,37.7
		c7.5,0,13.2,1.8,17.2,5.3c3.9,3.5,5.9,8.6,5.9,15.3s-2,11.7-5.9,15.3c-3.9,3.5-9.6,5.3-17.2,5.3h-16.5v-5.7h4.4V43.5h-4.4v-5.7
		L214.4,37.7L214.4,37.7z M209.6,43.5v29.7h5c5,0,8.8-1.3,11.4-3.8c2.6-2.5,3.9-6.2,3.9-11c0-4.9-1.3-8.5-3.9-11.1
		c-2.6-2.5-6.4-3.8-11.4-3.8C214.6,43.5,209.6,43.5,209.6,43.5z"/>
	<path class="st1" d="M505.3,144.9l-2.5,8.5c-0.1,0.5-0.2,0.8-0.2,0.9c0,0.1,0,0.1,0.1,0.2l0.1,0.1c0.1,0,0.2,0,0.3-0.1
		c0.2-0.2,0.5-0.5,0.8-1l0.3,0.1c-0.5,0.8-0.9,1.3-1.4,1.6c-0.3,0.2-0.7,0.3-1,0.3s-0.6-0.1-0.8-0.3c-0.2-0.2-0.3-0.4-0.3-0.6
		c0-0.2,0.1-0.5,0.2-0.9l2-6.9c0.1-0.4,0.2-0.6,0.2-0.8c0-0.1-0.1-0.2-0.2-0.3s-0.4-0.1-0.6-0.1l0.1-0.3l2.5-0.4H505.3z
		 M493.9,154.9c0.2,0.1,0.4,0.2,0.6,0.2c0.3,0,0.5-0.1,0.7-0.2c0.3-0.2,0.6-0.5,0.9-0.9s0.6-1,0.8-1.6c0.2-0.6,0.3-1.3,0.3-1.9
		c0-0.4-0.1-0.6-0.2-0.8c-0.2-0.2-0.3-0.3-0.6-0.3c-0.4,0-0.7,0.2-0.9,0.5c-0.2,0.2-0.4,0.7-0.6,1.4L493.9,154.9z M496.8,144.9
		l-1.3,4.5c0.4-0.4,0.7-0.7,1-0.9c0.3-0.1,0.6-0.2,0.9-0.2c0.6,0,1.1,0.2,1.4,0.6c0.3,0.4,0.4,0.9,0.4,1.5c0,1.3-0.5,2.6-1.5,3.6
		c-0.9,0.9-1.9,1.4-3,1.4c-0.8,0-1.7-0.2-2.6-0.7l2.3-8c0.1-0.4,0.2-0.6,0.2-0.8c0-0.1,0-0.2-0.1-0.3s-0.3-0.1-0.6-0.1l0.1-0.3
		l2.5-0.4L496.8,144.9L496.8,144.9z M488.4,149.9c0-0.4-0.1-0.7-0.2-0.9c-0.1-0.1-0.2-0.2-0.4-0.2c-0.2,0-0.3,0.1-0.5,0.2
		c-0.3,0.3-0.7,0.9-1.1,1.9c-0.4,0.9-0.6,1.8-0.6,2.5c0,0.3,0,0.5,0.1,0.6s0.2,0.2,0.3,0.2c0.2,0,0.5-0.1,0.7-0.4
		c0.3-0.4,0.6-0.8,0.9-1.4C488.2,151.6,488.4,150.8,488.4,149.9z M490.8,148.6l-1.5,5l-0.2,0.6c0,0.1,0,0.1,0,0.2
		c0,0.1,0,0.1,0.1,0.2l0.1,0.1c0.1,0,0.3-0.1,0.4-0.2c0.1-0.1,0.3-0.3,0.5-0.7l0.3,0.1c-0.4,0.7-0.7,1.1-1.1,1.4
		c-0.4,0.3-0.8,0.4-1.3,0.4c-0.3,0-0.5-0.1-0.7-0.2c-0.1-0.1-0.2-0.3-0.2-0.6c0-0.2,0.1-0.6,0.2-1.1l0.2-0.6c-0.6,1-1.1,1.7-1.7,2.1
		c-0.3,0.2-0.6,0.4-1,0.4c-0.5,0-0.8-0.2-1-0.6c-0.2-0.4-0.3-0.8-0.3-1.3c0-0.7,0.2-1.5,0.6-2.4s1-1.6,1.7-2.2
		c0.6-0.5,1.1-0.7,1.6-0.7c0.3,0,0.5,0.1,0.7,0.2c0.2,0.2,0.3,0.5,0.4,0.9l0.3-0.9L490.8,148.6z M482.7,146.7l-0.6,2h1l-0.3,0.9h-1
		l-1.3,4.4c-0.1,0.3-0.1,0.5-0.1,0.6s0,0.1,0.1,0.2c0,0,0.1,0.1,0.2,0.1s0.2,0,0.3-0.1c0.2-0.2,0.5-0.5,0.8-0.9l0.3,0.2
		c-0.3,0.6-0.7,1-1.1,1.3s-0.8,0.4-1.2,0.4c-0.3,0-0.6-0.1-0.8-0.3c-0.2-0.2-0.3-0.4-0.3-0.7s0.1-0.7,0.2-1.1l1.2-4.1h-1l0.1-0.6
		c0.6-0.2,1.2-0.5,1.6-0.8s1-0.8,1.6-1.5L482.7,146.7L482.7,146.7z M477.6,146.7l-0.6,2h1l-0.3,0.9h-1l-1.3,4.4
		c-0.1,0.3-0.1,0.5-0.1,0.6s0,0.1,0.1,0.2c0,0,0.1,0.1,0.2,0.1s0.2,0,0.3-0.1c0.2-0.2,0.5-0.5,0.8-0.9l0.3,0.2
		c-0.3,0.6-0.7,1-1.1,1.3s-0.8,0.4-1.2,0.4c-0.3,0-0.6-0.1-0.8-0.3c-0.2-0.2-0.3-0.4-0.3-0.7s0.1-0.7,0.2-1.1l1.2-4.1h-1l0.1-0.6
		c0.6-0.2,1.2-0.5,1.6-0.8s1-0.8,1.6-1.5L477.6,146.7L477.6,146.7z M468,152.2c0.4-0.1,0.8-0.1,1-0.3c0.2-0.1,0.5-0.3,0.7-0.5
		s0.4-0.6,0.6-0.9c0.2-0.4,0.3-0.7,0.3-1.1c0-0.1,0-0.2-0.1-0.3s-0.2-0.1-0.3-0.1c-0.2,0-0.5,0.2-0.8,0.5
		C468.8,150.1,468.4,150.9,468,152.2z M467.9,152.6c-0.1,0.3-0.1,0.6-0.1,0.8c0,0.4,0.1,0.7,0.3,0.9c0.2,0.2,0.5,0.3,0.9,0.3
		s0.7-0.1,1.1-0.3c0.3-0.2,0.8-0.5,1.2-0.9l0.2,0.2c-0.6,0.7-1.1,1.2-1.7,1.5c-0.5,0.3-1.1,0.4-1.8,0.4c-0.8,0-1.4-0.2-1.7-0.6
		c-0.3-0.4-0.5-0.9-0.5-1.4c0-0.8,0.2-1.6,0.7-2.5c0.5-0.8,1.1-1.5,2-2c0.8-0.5,1.6-0.7,2.5-0.7c0.4,0,0.7,0.1,1,0.3
		c0.2,0.2,0.3,0.5,0.3,0.8c0,0.4-0.1,0.7-0.3,1.1c-0.3,0.5-0.6,0.8-1.1,1.1c-0.4,0.3-0.9,0.5-1.5,0.7
		C469,152.4,468.6,152.6,467.9,152.6z M458.8,155.8c-0.5,0.2-0.8,0.4-1,0.6c-0.2,0.2-0.3,0.4-0.3,0.7s0.2,0.6,0.5,0.9
		c0.3,0.3,0.9,0.4,1.6,0.4c0.6,0,1.1-0.1,1.3-0.3c0.3-0.2,0.4-0.5,0.4-0.8s-0.1-0.5-0.4-0.7s-0.8-0.3-1.5-0.5
		C459.3,155.9,459,155.8,458.8,155.8z M461.4,148.9c-0.2,0-0.4,0.1-0.6,0.2c-0.3,0.2-0.5,0.7-0.7,1.2c-0.2,0.6-0.3,1.1-0.3,1.6
		c0,0.2,0.1,0.4,0.2,0.6c0.1,0.1,0.3,0.2,0.5,0.2s0.4-0.1,0.5-0.2c0.3-0.3,0.5-0.7,0.7-1.3s0.3-1.2,0.3-1.6c0-0.2-0.1-0.4-0.2-0.5
		C461.7,148.9,461.6,148.9,461.4,148.9z M463,148.9h2l-0.2,0.8h-1c0.2,0.3,0.2,0.6,0.2,0.8c0,0.5-0.1,0.9-0.4,1.3
		c-0.2,0.4-0.6,0.7-1.1,0.9s-1,0.3-1.6,0.3c-0.2,0-0.3,0-0.5,0s-0.4-0.1-0.6-0.1c-0.3,0.2-0.5,0.3-0.6,0.4c-0.1,0.1-0.1,0.1-0.1,0.2
		c0,0.1,0,0.2,0.1,0.2c0.1,0.1,0.3,0.2,0.6,0.3c1,0.2,1.7,0.4,2,0.5c0.4,0.2,0.8,0.4,1,0.7s0.3,0.6,0.3,1.1c0,0.6-0.3,1.2-0.9,1.6
		c-0.6,0.5-1.5,0.7-2.7,0.7s-2.1-0.2-2.7-0.6c-0.4-0.3-0.6-0.6-0.6-1c0-0.3,0.1-0.6,0.4-0.8c0.3-0.3,0.9-0.5,1.8-0.7
		c-0.3-0.2-0.5-0.3-0.6-0.5s-0.2-0.4-0.2-0.6c0-0.3,0.1-0.6,0.4-0.9c0.3-0.3,0.7-0.5,1.4-0.8c-0.5-0.2-0.8-0.4-1.1-0.8
		c-0.2-0.3-0.3-0.7-0.3-1.1c0-0.4,0.1-0.8,0.4-1.2s0.6-0.7,1.2-1c0.5-0.2,1.1-0.4,1.8-0.4c0.4,0,0.8,0,1.1,0.1
		C462.5,148.7,462.7,148.8,463,148.9z M453.8,148.4l-1.1,4.2c0.9-2.1,1.6-3.3,2.1-3.8c0.3-0.3,0.6-0.4,0.9-0.4
		c0.2,0,0.4,0.1,0.5,0.2c0.1,0.2,0.2,0.4,0.2,0.6c0,0.5-0.1,0.9-0.4,1.2c-0.1,0.2-0.3,0.3-0.5,0.3s-0.4-0.1-0.5-0.3
		s-0.2-0.3-0.2-0.3h-0.1c-0.1,0-0.1,0-0.2,0c-0.1,0.1-0.3,0.2-0.4,0.4c-0.2,0.2-0.4,0.6-0.7,1.2c-0.3,0.5-0.5,1-0.6,1.4
		s-0.3,1.1-0.6,2.2h-1.8l1.2-5c0.1-0.4,0.1-0.6,0.1-0.7c0-0.1,0-0.2-0.1-0.3c0-0.1-0.1-0.1-0.2-0.2c-0.1,0-0.3-0.1-0.5-0.1l0.1-0.2
		l2.3-0.5h0.5L453.8,148.4L453.8,148.4z M446.4,148.9c-0.3,0-0.5,0.1-0.7,0.2c-0.3,0.3-0.7,1.1-1.2,2.2c-0.4,1.2-0.7,2.2-0.7,3.1
		c0,0.2,0.1,0.4,0.2,0.6c0.1,0.1,0.3,0.2,0.5,0.2s0.4-0.1,0.5-0.2c0.2-0.2,0.5-0.6,0.8-1.2c0.3-0.6,0.6-1.3,0.8-2.1
		c0.2-0.8,0.3-1.5,0.3-2.1c0-0.3-0.1-0.5-0.2-0.6C446.7,148.9,446.6,148.9,446.4,148.9z M446.7,148.4c0.4,0,0.8,0.1,1.1,0.3
		c0.3,0.2,0.6,0.4,0.8,0.8c0.2,0.3,0.3,0.7,0.3,1.1c0,0.8-0.2,1.6-0.7,2.4c-0.4,0.8-1,1.5-1.8,1.9c-0.7,0.5-1.5,0.7-2.2,0.7
		s-1.2-0.2-1.6-0.6c-0.4-0.4-0.6-0.9-0.6-1.5c0-0.7,0.1-1.3,0.4-2c0.3-0.6,0.6-1.1,1.1-1.6c0.4-0.4,0.9-0.8,1.5-1.1
		C445.5,148.6,446.1,148.4,446.7,148.4z M439.7,149.6l-0.9,3.5c-0.4,1.6-0.8,2.8-1.2,3.6c-0.4,0.7-0.8,1.3-1.4,1.6
		c-0.5,0.4-1.1,0.5-1.8,0.5c-0.4,0-0.7-0.1-0.9-0.2c-0.2-0.2-0.3-0.4-0.3-0.6c0-0.2,0.1-0.4,0.2-0.5c0.2-0.1,0.4-0.2,0.7-0.2
		c0.2,0,0.4,0.1,0.5,0.2c0.1,0.1,0.2,0.3,0.2,0.4c0,0.2,0,0.3-0.1,0.4c-0.1,0.1-0.1,0.1-0.1,0.2l0,0h0.1c0.1,0,0.3,0,0.4-0.1
		c0.3-0.2,0.5-0.5,0.6-0.9c0.1-0.2,0.3-0.8,0.5-1.8l1.5-6h-1l0.3-0.9c0.4,0,0.6,0,0.8-0.1c0.2-0.1,0.3-0.3,0.5-0.7
		c0.6-1,1.1-1.7,1.7-2.2c0.6-0.4,1.3-0.7,2-0.7c0.5,0,0.8,0.1,1,0.3s0.3,0.4,0.3,0.7s-0.1,0.5-0.2,0.6c-0.1,0.2-0.3,0.2-0.5,0.2
		s-0.4-0.1-0.5-0.2c-0.1-0.1-0.2-0.3-0.2-0.4c0-0.1,0-0.3,0.1-0.4c0.1-0.1,0.1-0.2,0.1-0.3s0-0.1-0.1-0.1l-0.1-0.1
		c-0.3,0-0.6,0.2-0.9,0.5c-0.5,0.6-0.9,1.5-1.2,2.8h1.1l-0.3,0.9H439.7z M430.4,148.4l-0.9,3.2c0.6-0.9,1.1-1.6,1.4-1.9
		c0.5-0.5,0.8-0.8,1.2-1c0.3-0.2,0.6-0.3,0.9-0.3s0.5,0.1,0.7,0.3s0.3,0.4,0.3,0.8c0,0.3-0.1,0.6-0.2,1l-1,3.2
		c-0.1,0.3-0.1,0.5-0.1,0.6c0,0,0,0.1,0.1,0.1l0.1,0.1c0,0,0.1,0,0.2-0.1c0.2-0.1,0.4-0.4,0.5-0.6c0-0.1,0.1-0.2,0.2-0.3l0.3,0.2
		c-0.7,1.2-1.5,1.9-2.3,1.9c-0.3,0-0.6-0.1-0.7-0.2c-0.2-0.2-0.3-0.4-0.3-0.6c0-0.2,0.1-0.5,0.2-0.9l0.9-3.2
		c0.1-0.2,0.1-0.4,0.1-0.5s0-0.1-0.1-0.1c0,0-0.1-0.1-0.2-0.1c-0.2,0-0.4,0.1-0.7,0.4c-0.7,0.7-1.4,1.6-2,2.9l-0.6,2.2h-1.9l1.4-4.8
		c0.1-0.5,0.2-0.8,0.2-1c0-0.1,0-0.2-0.1-0.2c0-0.1-0.1-0.1-0.2-0.1s-0.3,0-0.5,0l0.1-0.3l2.5-0.4h0.5V148.4z M423.3,145.3h3.4
		l-0.1,0.3c-0.4,0-0.7,0.1-0.9,0.3c-0.3,0.3-0.6,0.7-0.8,1.3l-1.3,4.7c-0.4,1.5-1,2.5-1.7,3c-0.7,0.6-1.6,0.9-2.7,0.9
		c-0.6,0-1.2-0.1-1.7-0.3s-0.8-0.4-1.1-0.6c-0.2-0.2-0.4-0.5-0.5-0.8s-0.2-0.6-0.2-0.8c0-0.4,0.1-0.9,0.3-1.6l1.3-4.5
		c0.1-0.4,0.2-0.7,0.2-0.9s-0.1-0.3-0.2-0.4c-0.1-0.1-0.5-0.2-1-0.2l0.1-0.3h5.1l-0.1,0.3c-0.5,0-0.9,0.1-1.1,0.3
		c-0.3,0.2-0.5,0.6-0.6,1.2l-1.3,4.5c-0.2,0.7-0.3,1.3-0.3,1.8c0,0.4,0.2,0.8,0.5,1.1s0.8,0.5,1.4,0.5c0.5,0,1-0.1,1.4-0.3
		s0.7-0.5,0.9-0.8c0.3-0.5,0.6-1.2,0.9-2l1.3-4.6c0.1-0.3,0.1-0.5,0.1-0.7c0-0.3-0.1-0.5-0.3-0.7c-0.2-0.1-0.5-0.2-1-0.2
		L423.3,145.3z M469.9,140.9c-0.5,0.2-0.8,0.4-1,0.6c-0.2,0.2-0.3,0.4-0.3,0.7s0.2,0.6,0.5,0.9c0.3,0.3,0.9,0.4,1.6,0.4
		c0.6,0,1.1-0.1,1.3-0.3c0.3-0.2,0.4-0.5,0.4-0.8s-0.1-0.5-0.4-0.7s-0.8-0.3-1.5-0.5C470.4,141.1,470.1,140.9,469.9,140.9z
		 M472.5,133.9c-0.2,0-0.4,0.1-0.6,0.2c-0.3,0.2-0.5,0.7-0.7,1.2c-0.2,0.6-0.3,1.1-0.3,1.6c0,0.2,0.1,0.4,0.2,0.6
		c0.1,0.1,0.3,0.2,0.5,0.2s0.4-0.1,0.5-0.2c0.3-0.3,0.5-0.7,0.7-1.3s0.3-1.2,0.3-1.6c0-0.2-0.1-0.4-0.2-0.5
		C472.8,134.1,472.7,133.9,472.5,133.9z M474,134.1h2l-0.2,0.8h-1c0.2,0.3,0.2,0.6,0.2,0.8c0,0.5-0.1,0.9-0.4,1.3
		c-0.2,0.4-0.6,0.7-1.1,0.9s-1,0.3-1.6,0.3c-0.2,0-0.3,0-0.5,0s-0.4-0.1-0.6-0.1c-0.3,0.2-0.5,0.3-0.6,0.4c-0.1,0.1-0.1,0.1-0.1,0.2
		c0,0.1,0,0.2,0.1,0.2c0.1,0.1,0.3,0.2,0.6,0.3c1,0.2,1.7,0.4,2,0.5c0.4,0.2,0.8,0.4,1,0.7s0.3,0.6,0.3,1.1c0,0.6-0.3,1.2-0.9,1.6
		c-0.6,0.5-1.5,0.7-2.7,0.7s-2.1-0.2-2.7-0.6c-0.4-0.3-0.6-0.6-0.6-1c0-0.3,0.1-0.6,0.4-0.8c0.3-0.3,0.9-0.5,1.8-0.7
		c-0.3-0.2-0.5-0.3-0.6-0.5s-0.2-0.4-0.2-0.6c0-0.3,0.1-0.6,0.4-0.9c0.3-0.3,0.7-0.5,1.4-0.8c-0.5-0.2-0.8-0.4-1.1-0.8
		c-0.2-0.3-0.3-0.7-0.3-1.1c0-0.4,0.1-0.8,0.4-1.2s0.6-0.7,1.2-1c0.5-0.2,1.1-0.4,1.8-0.4c0.4,0,0.8,0,1.1,0.1
		C473.6,133.8,473.8,133.9,474,134.1z M462.8,133.6l-0.9,3.2c0.6-0.9,1.1-1.6,1.4-1.9c0.5-0.5,0.8-0.8,1.2-1
		c0.3-0.2,0.6-0.3,0.9-0.3s0.5,0.1,0.7,0.3s0.3,0.4,0.3,0.8c0,0.3-0.1,0.6-0.2,1l-1,3.2c-0.1,0.3-0.1,0.5-0.1,0.6c0,0,0,0.1,0.1,0.1
		l0.1,0.1c0,0,0.1,0,0.2-0.1c0.2-0.1,0.4-0.4,0.5-0.6c0-0.1,0.1-0.2,0.2-0.3l0.3,0.2c-0.7,1.2-1.5,1.9-2.3,1.9
		c-0.3,0-0.6-0.1-0.7-0.2c-0.2-0.2-0.3-0.4-0.3-0.6c0-0.2,0.1-0.5,0.2-0.9l0.9-3.2c0.1-0.2,0.1-0.4,0.1-0.5s0-0.1-0.1-0.1
		c0,0-0.1-0.1-0.2-0.1c-0.2,0-0.4,0.1-0.7,0.4c-0.7,0.7-1.4,1.6-2,2.9l-0.6,2.2h-1.9l1.4-4.8c0.1-0.5,0.2-0.8,0.2-1
		c0-0.1,0-0.2-0.1-0.2c0-0.1-0.1-0.1-0.2-0.1s-0.3,0-0.5,0l0.1-0.3l2.5-0.4h0.5V133.6z M457.5,133.6l-1.5,5.3
		c-0.1,0.3-0.1,0.5-0.1,0.6c0,0,0,0.1,0.1,0.1l0.1,0.1c0.1,0,0.2,0,0.3-0.1c0.2-0.2,0.5-0.5,0.8-1l0.3,0.1c-0.8,1.3-1.6,2-2.4,2
		c-0.3,0-0.6-0.1-0.8-0.3c-0.2-0.2-0.3-0.4-0.3-0.7c0-0.2,0-0.4,0.1-0.7l1-3.6c0.1-0.3,0.1-0.6,0.1-0.8c0-0.1,0-0.2-0.1-0.3
		s-0.2-0.1-0.4-0.1c-0.1,0-0.2,0-0.3,0l0.1-0.3l2.5-0.4L457.5,133.6L457.5,133.6z M457,130.2c0.3,0,0.6,0.1,0.8,0.3
		c0.2,0.2,0.3,0.5,0.3,0.8s-0.1,0.6-0.3,0.8c-0.2,0.2-0.5,0.3-0.8,0.3s-0.6-0.1-0.8-0.3c-0.2-0.2-0.3-0.5-0.3-0.8s0.1-0.6,0.3-0.8
		C456.5,130.3,456.7,130.2,457,130.2z M452.9,131.8l-0.6,2h1l-0.3,0.9h-1l-1.3,4.4c-0.1,0.3-0.1,0.5-0.1,0.6s0,0.1,0.1,0.2
		c0,0,0.1,0.1,0.2,0.1s0.2,0,0.3-0.1c0.2-0.2,0.5-0.5,0.8-0.9l0.3,0.2c-0.3,0.6-0.7,1-1.1,1.3s-0.8,0.4-1.2,0.4
		c-0.3,0-0.6-0.1-0.8-0.3c-0.2-0.2-0.3-0.4-0.3-0.7s0.1-0.7,0.2-1.1l1.2-4.1h-1l0.1-0.6c0.6-0.2,1.2-0.5,1.6-0.8s1-0.8,1.6-1.5
		L452.9,131.8L452.9,131.8z M444.9,135.2c0-0.4-0.1-0.7-0.2-0.9c-0.1-0.1-0.2-0.2-0.4-0.2c-0.2,0-0.3,0.1-0.5,0.2
		c-0.3,0.3-0.7,0.9-1.1,1.9c-0.4,0.9-0.6,1.8-0.6,2.5c0,0.3,0,0.5,0.1,0.6s0.2,0.2,0.3,0.2c0.2,0,0.5-0.1,0.7-0.4
		c0.3-0.4,0.6-0.8,0.9-1.4C444.7,136.7,444.9,135.9,444.9,135.2z M447.3,133.7l-1.5,5l-0.2,0.6c0,0.1,0,0.1,0,0.2
		c0,0.1,0,0.1,0.1,0.2l0.1,0.1c0.1,0,0.3-0.1,0.4-0.2c0.1-0.1,0.3-0.3,0.5-0.7l0.3,0.1c-0.4,0.7-0.7,1.1-1.1,1.4
		c-0.4,0.3-0.8,0.4-1.3,0.4c-0.3,0-0.5-0.1-0.7-0.2c-0.1-0.1-0.2-0.3-0.2-0.6c0-0.2,0.1-0.6,0.2-1.1l0.2-0.6c-0.6,1-1.1,1.7-1.7,2.1
		c-0.3,0.2-0.6,0.4-1,0.4c-0.5,0-0.8-0.2-1-0.6c-0.2-0.4-0.3-0.8-0.3-1.3c0-0.7,0.2-1.5,0.6-2.4s1-1.6,1.7-2.2
		c0.6-0.5,1.1-0.7,1.6-0.7c0.3,0,0.5,0.1,0.7,0.2c0.2,0.2,0.3,0.5,0.4,0.9l0.3-0.9L447.3,133.7z M434.8,137.4c0.4-0.1,0.8-0.1,1-0.3
		c0.2-0.1,0.5-0.3,0.7-0.5s0.4-0.6,0.6-0.9c0.2-0.4,0.3-0.7,0.3-1.1c0-0.1,0-0.2-0.1-0.3s-0.2-0.1-0.3-0.1c-0.2,0-0.5,0.2-0.8,0.5
		C435.6,135.2,435.1,136.2,434.8,137.4z M434.7,137.8c-0.1,0.3-0.1,0.6-0.1,0.8c0,0.4,0.1,0.7,0.3,0.9c0.2,0.2,0.5,0.3,0.9,0.3
		s0.7-0.1,1.1-0.3c0.3-0.2,0.8-0.5,1.2-0.9l0.2,0.2c-0.6,0.7-1.1,1.2-1.7,1.5c-0.5,0.3-1.1,0.4-1.8,0.4c-0.8,0-1.4-0.2-1.7-0.6
		c-0.3-0.4-0.5-0.9-0.5-1.4c0-0.8,0.2-1.6,0.7-2.5c0.5-0.8,1.1-1.5,2-2c0.8-0.5,1.6-0.7,2.5-0.7c0.4,0,0.7,0.1,1,0.3
		c0.2,0.2,0.3,0.5,0.3,0.8c0,0.4-0.1,0.7-0.3,1.1c-0.3,0.5-0.6,0.8-1.1,1.1c-0.4,0.3-0.9,0.5-1.5,0.7
		C435.8,137.7,435.3,137.7,434.7,137.8z M429.1,133.6l-1.1,4.2c0.9-2.1,1.6-3.3,2.1-3.8c0.3-0.3,0.6-0.4,0.9-0.4
		c0.2,0,0.4,0.1,0.5,0.2c0.1,0.1,0.2,0.4,0.2,0.6c0,0.5-0.1,0.9-0.4,1.2c-0.1,0.2-0.3,0.3-0.5,0.3s-0.4-0.1-0.5-0.3
		s-0.2-0.3-0.2-0.3H430c-0.1,0-0.1,0-0.2,0c-0.1,0.1-0.3,0.2-0.4,0.4c-0.2,0.2-0.4,0.6-0.7,1.2c-0.3,0.5-0.5,1-0.6,1.4
		s-0.3,1.1-0.6,2.2h-1.8l1.2-5c0.1-0.4,0.1-0.6,0.1-0.7c0-0.1,0-0.2-0.1-0.3c0-0.1-0.1-0.1-0.2-0.2c-0.1,0-0.3-0.1-0.5-0.1l0.1-0.2
		l2.3-0.5h0.5L429.1,133.6L429.1,133.6z M425.4,130.2l-0.7,3.2h-0.3c0-0.9-0.2-1.5-0.6-2c-0.4-0.4-0.9-0.7-1.6-0.7s-1.4,0.3-2.1,0.9
		c-0.7,0.6-1.3,1.5-1.7,2.7c-0.4,1-0.6,2-0.6,2.9s0.2,1.5,0.6,2s1,0.7,1.7,0.7c0.6,0,1.1-0.1,1.6-0.4c0.5-0.3,1-0.7,1.5-1.3h0.4
		c-0.6,0.9-1.2,1.6-1.9,2c-0.6,0.4-1.4,0.6-2.3,0.6c-1.2,0-2.2-0.4-3-1.1c-0.7-0.7-1.1-1.7-1.1-2.9c0-1.1,0.3-2.2,0.9-3.2
		s1.5-1.8,2.6-2.5c1.1-0.6,2.2-0.9,3.3-0.9c0.4,0,0.9,0.1,1.6,0.3c0.3,0.1,0.5,0.1,0.7,0.1s0.5-0.1,0.8-0.4L425.4,130.2L425.4,130.2
		z"/>
	<path class="st1" d="M500.2,163.4l-0.3,2.3h-0.3c0-0.6-0.2-1.1-0.5-1.4c-0.3-0.3-0.7-0.5-1.1-0.5c-0.2,0-0.4,0.1-0.6,0.2
		c-0.1,0.1-0.2,0.3-0.2,0.5s0,0.3,0.1,0.5c0.1,0.1,0.2,0.3,0.4,0.6c0.8,0.8,1.3,1.4,1.4,1.8c0.2,0.3,0.3,0.7,0.3,1
		c0,0.4-0.1,0.8-0.3,1.1c-0.2,0.3-0.5,0.6-0.9,0.8s-0.8,0.3-1.2,0.3c-0.3,0-0.6-0.1-1.1-0.2c-0.3-0.1-0.5-0.1-0.6-0.1
		s-0.2,0-0.3,0.1c-0.1,0-0.1,0.1-0.2,0.2h-0.3l0.4-2.5h0.2c0.2,0.6,0.3,1,0.5,1.3s0.4,0.5,0.6,0.6c0.3,0.2,0.5,0.2,0.7,0.2
		c0.3,0,0.5-0.1,0.7-0.3s0.3-0.4,0.3-0.6c0-0.2-0.1-0.5-0.2-0.7s-0.4-0.6-0.8-1c-0.6-0.6-1-1.1-1.2-1.5c-0.1-0.2-0.2-0.5-0.2-0.8
		c0-0.5,0.2-1,0.6-1.4s0.9-0.5,1.6-0.5c0.3,0,0.7,0.1,1.1,0.2c0.2,0.1,0.4,0.1,0.5,0.1c0.2,0,0.3-0.1,0.5-0.2h0.4L500.2,163.4
		L500.2,163.4z M489.3,167.1c0.4-0.1,0.8-0.1,1-0.3c0.2-0.1,0.5-0.3,0.7-0.5s0.4-0.6,0.6-0.9c0.2-0.4,0.3-0.7,0.3-1.1
		c0-0.1,0-0.2-0.1-0.3s-0.2-0.1-0.3-0.1c-0.2,0-0.5,0.2-0.8,0.5C490.1,164.9,489.7,165.9,489.3,167.1z M489.3,167.4
		c-0.1,0.3-0.1,0.6-0.1,0.8c0,0.4,0.1,0.7,0.3,0.9c0.2,0.2,0.5,0.3,0.9,0.3s0.7-0.1,1.1-0.3c0.3-0.2,0.8-0.5,1.2-0.9l0.2,0.2
		c-0.6,0.7-1.1,1.2-1.7,1.5c-0.5,0.3-1.1,0.4-1.8,0.4c-0.8,0-1.4-0.2-1.7-0.6c-0.3-0.4-0.5-0.9-0.5-1.4c0-0.8,0.2-1.6,0.7-2.5
		c0.5-0.8,1.1-1.5,2-2c0.8-0.5,1.6-0.7,2.5-0.7c0.4,0,0.7,0.1,1,0.3c0.2,0.2,0.3,0.5,0.3,0.8c0,0.4-0.1,0.7-0.3,1.1
		c-0.3,0.5-0.6,0.8-1.1,1.1c-0.4,0.3-0.9,0.5-1.5,0.7C490.4,167.4,489.9,167.4,489.3,167.4z M484.9,168.4l0.2,0.2
		c-0.5,0.6-1,1-1.4,1.3c-0.6,0.4-1.3,0.5-1.9,0.5c-0.5,0-0.9-0.1-1.2-0.3c-0.3-0.2-0.6-0.5-0.8-0.8c-0.2-0.3-0.3-0.7-0.3-1.1
		c0-0.8,0.2-1.6,0.7-2.4c0.4-0.8,1-1.4,1.8-1.9c0.7-0.5,1.4-0.7,2.1-0.7c0.6,0,1,0.1,1.3,0.4c0.3,0.2,0.4,0.6,0.4,0.9
		c0,0.3-0.1,0.6-0.3,0.9c-0.2,0.2-0.5,0.3-0.7,0.3s-0.4-0.1-0.6-0.2c-0.2-0.1-0.2-0.3-0.2-0.5c0-0.3,0.1-0.5,0.4-0.7
		c0.2-0.1,0.3-0.3,0.3-0.4c0-0.1,0-0.2-0.1-0.2c-0.1-0.1-0.2-0.1-0.4-0.1c-0.4,0-0.8,0.2-1.2,0.5c-0.5,0.4-0.9,1-1.1,1.7
		c-0.3,0.7-0.4,1.3-0.4,2c0,0.5,0.1,0.9,0.4,1.2s0.6,0.4,0.9,0.4s0.7-0.1,1-0.2C484.3,169.1,484.6,168.8,484.9,168.4z M473.9,163.4
		l-0.9,3.2c0.6-0.9,1.1-1.6,1.4-1.9c0.5-0.5,0.8-0.8,1.2-1c0.3-0.2,0.6-0.3,0.9-0.3s0.5,0.1,0.7,0.3s0.3,0.4,0.3,0.8
		c0,0.3-0.1,0.6-0.2,1l-1,3.2c-0.1,0.3-0.1,0.5-0.1,0.6c0,0,0,0.1,0.1,0.1l0.1,0.1c0,0,0.1,0,0.2-0.1c0.2-0.1,0.4-0.4,0.5-0.6
		c0-0.1,0.1-0.2,0.2-0.3l0.3,0.2c-0.7,1.2-1.5,1.9-2.3,1.9c-0.3,0-0.6-0.1-0.7-0.2c-0.2-0.2-0.3-0.4-0.3-0.6c0-0.2,0.1-0.5,0.2-0.9
		l0.9-3.2c0.1-0.2,0.1-0.4,0.1-0.5s0-0.1-0.1-0.1c0,0-0.1-0.1-0.2-0.1c-0.2,0-0.4,0.1-0.7,0.4c-0.7,0.7-1.4,1.6-2,2.9l-0.6,2.2H470
		l1.4-4.8c0.1-0.5,0.2-0.8,0.2-1c0-0.1,0-0.2-0.1-0.2c0-0.1-0.1-0.1-0.2-0.1s-0.3,0-0.5,0l0.1-0.3l2.5-0.4h0.5V163.4z M464.6,167.1
		c0.4-0.1,0.8-0.1,1-0.3c0.2-0.1,0.5-0.3,0.7-0.5s0.4-0.6,0.6-0.9c0.2-0.4,0.3-0.7,0.3-1.1c0-0.1,0-0.2-0.1-0.3s-0.2-0.1-0.3-0.1
		c-0.2,0-0.5,0.2-0.8,0.5C465.4,164.9,465,165.9,464.6,167.1z M464.5,167.4c-0.1,0.3-0.1,0.6-0.1,0.8c0,0.4,0.1,0.7,0.3,0.9
		c0.2,0.2,0.5,0.3,0.9,0.3s0.7-0.1,1.1-0.3c0.3-0.2,0.8-0.5,1.2-0.9l0.2,0.2c-0.6,0.7-1.1,1.2-1.7,1.5c-0.5,0.3-1.1,0.4-1.8,0.4
		c-0.8,0-1.4-0.2-1.7-0.6c-0.3-0.4-0.5-0.9-0.5-1.4c0-0.8,0.2-1.6,0.7-2.5c0.5-0.8,1.1-1.5,2-2c0.8-0.5,1.6-0.7,2.5-0.7
		c0.4,0,0.7,0.1,1,0.3c0.2,0.2,0.3,0.5,0.3,0.8c0,0.4-0.1,0.7-0.3,1.1c-0.3,0.5-0.6,0.8-1.1,1.1c-0.4,0.3-0.9,0.5-1.5,0.7
		C465.6,167.4,465.1,167.4,464.5,167.4z M460.9,163.4l-1.5,5.3c-0.1,0.3-0.1,0.5-0.1,0.6c0,0,0,0.1,0.1,0.1l0.1,0.1
		c0.1,0,0.2,0,0.3-0.1c0.2-0.2,0.5-0.5,0.8-1l0.3,0.1c-0.8,1.3-1.6,2-2.4,2c-0.3,0-0.6-0.1-0.8-0.3c-0.2-0.2-0.3-0.4-0.3-0.7
		c0-0.2,0-0.4,0.1-0.7l1-3.6c0.1-0.3,0.1-0.6,0.1-0.8c0-0.1,0-0.2-0.1-0.3s-0.2-0.1-0.4-0.1c-0.1,0-0.2,0-0.3,0l0.1-0.3l2.5-0.4
		L460.9,163.4L460.9,163.4z M460.4,159.9c0.3,0,0.6,0.1,0.8,0.3c0.2,0.2,0.3,0.5,0.3,0.8s-0.1,0.6-0.3,0.8c-0.2,0.2-0.5,0.3-0.8,0.3
		s-0.6-0.1-0.8-0.3c-0.2-0.2-0.3-0.5-0.3-0.8s0.1-0.6,0.3-0.8C459.9,159.9,460.1,159.9,460.4,159.9z M453.8,163.4l-1.1,4.2
		c0.9-2.1,1.6-3.3,2.1-3.8c0.3-0.3,0.6-0.4,0.9-0.4c0.2,0,0.4,0.1,0.5,0.2c0.1,0.2,0.2,0.4,0.2,0.6c0,0.5-0.1,0.9-0.4,1.2
		c-0.1,0.2-0.3,0.3-0.5,0.3s-0.4-0.1-0.5-0.3s-0.2-0.3-0.2-0.3h-0.1c-0.1,0-0.1,0-0.2,0c-0.1,0.1-0.3,0.2-0.4,0.4
		c-0.2,0.2-0.4,0.6-0.7,1.2c-0.3,0.5-0.5,1-0.6,1.4s-0.3,1.1-0.6,2.2h-1.8l1.2-5c0.1-0.4,0.1-0.6,0.1-0.7c0-0.1,0-0.2-0.1-0.3
		c0-0.1-0.1-0.1-0.2-0.2c-0.1,0-0.3-0.1-0.5-0.1l0.1-0.2l2.3-0.5h0.5L453.8,163.4L453.8,163.4z M445,167.1c0.4-0.1,0.8-0.1,1-0.3
		c0.2-0.1,0.5-0.3,0.7-0.5s0.4-0.6,0.6-0.9c0.2-0.4,0.3-0.7,0.3-1.1c0-0.1,0-0.2-0.1-0.3s-0.2-0.1-0.3-0.1c-0.2,0-0.5,0.2-0.8,0.5
		C445.8,164.9,445.3,165.9,445,167.1z M444.9,167.4c-0.1,0.3-0.1,0.6-0.1,0.8c0,0.4,0.1,0.7,0.3,0.9c0.2,0.2,0.5,0.3,0.9,0.3
		s0.7-0.1,1.1-0.3c0.3-0.2,0.8-0.5,1.2-0.9l0.2,0.2c-0.6,0.7-1.1,1.2-1.7,1.5c-0.5,0.3-1.1,0.4-1.8,0.4c-0.8,0-1.4-0.2-1.7-0.6
		c-0.3-0.4-0.5-0.9-0.5-1.4c0-0.8,0.2-1.6,0.7-2.5c0.5-0.8,1.1-1.5,2-2c0.8-0.5,1.6-0.7,2.5-0.7c0.4,0,0.7,0.1,1,0.3
		c0.2,0.2,0.3,0.5,0.3,0.8c0,0.4-0.1,0.7-0.3,1.1c-0.3,0.5-0.6,0.8-1.1,1.1c-0.4,0.3-0.9,0.5-1.5,0.7
		C446,167.4,445.5,167.4,444.9,167.4z M436.1,169.4c0.2,0.2,0.3,0.4,0.4,0.5s0.3,0.1,0.4,0.1c0.2,0,0.3,0,0.5-0.1s0.3-0.3,0.6-0.5
		c0.2-0.3,0.4-0.6,0.6-1s0.4-0.9,0.5-1.4s0.2-1,0.2-1.5c0-0.4-0.1-0.7-0.2-0.8c-0.1-0.2-0.3-0.3-0.5-0.3s-0.3,0-0.5,0.1
		s-0.5,0.4-0.8,0.7L436.1,169.4z M434.9,163.8l2.5-0.4h0.5l-0.3,1.2c0.5-0.5,1-0.8,1.3-1s0.7-0.3,1-0.3c0.5,0,0.8,0.2,1.1,0.5
		c0.3,0.4,0.4,0.8,0.4,1.3c0,1.4-0.5,2.7-1.5,3.8c-0.9,1-1.8,1.5-2.9,1.5c-0.2,0-0.3,0-0.5-0.1s-0.3-0.1-0.6-0.2l-0.4,1.3
		c-0.1,0.5-0.2,0.9-0.2,1.1c0,0.2,0.1,0.3,0.2,0.4c0.1,0.1,0.4,0.2,0.8,0.2l-0.1,0.3h-4l0.1-0.3c0.3,0,0.6-0.1,0.8-0.3
		c0.2-0.2,0.4-0.6,0.6-1.3l1.8-6.3c0.1-0.5,0.2-0.8,0.2-1c0-0.1,0-0.1-0.1-0.2c0-0.1-0.1-0.1-0.2-0.1S435.1,163.9,434.9,163.8
		L434.9,163.8z M426.2,163.8l2.6-0.4c0.5,0.7,0.8,1.6,1,2.5c0.5-0.7,0.9-1.2,1.1-1.5c0.3-0.4,0.6-0.6,0.8-0.8
		c0.2-0.1,0.4-0.2,0.7-0.2c0.3,0,0.5,0.1,0.6,0.2c0.1,0.1,0.2,0.3,0.2,0.6c0,0.2-0.1,0.4-0.2,0.6c-0.1,0.2-0.3,0.2-0.6,0.2
		c-0.2,0-0.3,0-0.6-0.1c-0.2-0.1-0.3-0.1-0.4-0.1c-0.2,0-0.4,0.1-0.6,0.2c-0.3,0.2-0.6,0.6-1,1.3c0.4,1.5,0.8,2.4,1,2.7
		c0.1,0.2,0.3,0.3,0.5,0.3c0.1,0,0.2,0,0.3-0.1c0.1-0.1,0.4-0.4,0.7-0.8l0.3,0.2c-0.4,0.7-0.9,1.2-1.3,1.5c-0.3,0.2-0.6,0.3-0.9,0.3
		s-0.6-0.1-0.8-0.2c-0.2-0.1-0.4-0.4-0.6-0.7s-0.4-0.8-0.6-1.6c-0.6,0.7-1,1.3-1.4,1.6c-0.3,0.3-0.6,0.6-0.8,0.7
		c-0.2,0.1-0.5,0.2-0.7,0.2c-0.3,0-0.5-0.1-0.6-0.2c-0.2-0.2-0.2-0.3-0.2-0.6s0.1-0.5,0.2-0.6c0.2-0.2,0.4-0.3,0.6-0.3
		c0.1,0,0.3,0,0.5,0.1c0.3,0.1,0.4,0.2,0.5,0.2s0.3,0,0.4-0.1s0.3-0.2,0.6-0.5c0.1-0.2,0.4-0.5,0.8-1c-0.5-1.8-0.8-2.8-1.1-3.2
		c-0.2-0.2-0.4-0.3-0.7-0.3c-0.1,0-0.3,0-0.5,0.1L426.2,163.8z M420.2,160.7l-1.1,3.9h0.3c0.9,0,1.6-0.1,2-0.4
		c0.4-0.2,0.8-0.7,1.1-1.3h0.3l-1.1,4h-0.4c0-0.3,0.1-0.5,0.1-0.6c0-0.3-0.1-0.5-0.2-0.7c-0.2-0.2-0.4-0.3-0.6-0.4
		c-0.2-0.1-0.5-0.1-1.1-0.1h-0.6l-1,3.4c-0.1,0.3-0.1,0.5-0.1,0.7c0,0.1,0.1,0.2,0.2,0.3c0.2,0.1,0.5,0.2,0.9,0.2
		c0.9,0,1.7-0.2,2.4-0.5c0.8-0.4,1.4-0.9,2-1.6h0.3l-1.1,2.8h-8.7l0.1-0.3c0.5,0,0.9-0.1,1.1-0.3s0.4-0.6,0.6-1.3l1.9-6.6
		c0.1-0.4,0.2-0.7,0.2-0.9s-0.1-0.3-0.2-0.4c-0.1-0.1-0.4-0.2-0.9-0.2l0.1-0.3h8.1l-0.7,2.5h-0.3c0-0.5-0.1-0.8-0.2-1.1
		c-0.2-0.3-0.5-0.6-0.8-0.7c-0.3-0.1-0.9-0.2-1.7-0.2h-0.9L420.2,160.7L420.2,160.7z M508.1,152.2c0.4-0.1,0.8-0.1,1-0.3
		c0.2-0.1,0.5-0.3,0.7-0.5s0.4-0.6,0.6-0.9c0.2-0.4,0.3-0.7,0.3-1.1c0-0.1,0-0.2-0.1-0.3c-0.1-0.1-0.2-0.1-0.3-0.1
		c-0.2,0-0.5,0.2-0.8,0.5C508.9,150.1,508.4,150.9,508.1,152.2z M508,152.6c-0.1,0.3-0.1,0.6-0.1,0.8c0,0.4,0.1,0.7,0.3,0.9
		c0.2,0.2,0.5,0.3,0.9,0.3s0.7-0.1,1.1-0.3c0.3-0.2,0.8-0.5,1.2-0.9l0.2,0.2c-0.6,0.7-1.1,1.2-1.7,1.5c-0.5,0.3-1.1,0.4-1.8,0.4
		c-0.8,0-1.4-0.2-1.7-0.6c-0.3-0.4-0.5-0.9-0.5-1.4c0-0.8,0.2-1.6,0.7-2.5c0.5-0.8,1.1-1.5,2-2c0.8-0.5,1.6-0.7,2.5-0.7
		c0.4,0,0.7,0.1,1,0.3c0.2,0.2,0.3,0.5,0.3,0.8c0,0.4-0.1,0.7-0.3,1.1c-0.3,0.5-0.6,0.8-1.1,1.1c-0.4,0.3-0.9,0.5-1.5,0.7
		C509.1,152.4,508.6,152.6,508,152.6z"/>
	<path class="st1" d="M378.4,171.4v-5.7h4.4V136h-4.4v-5.7h16.8v5.8h-5v29.6h10.3v-6.4h6.7v12.1L378.4,171.4L378.4,171.4z
		 M342.8,171.4v-5.7h4.4V136h-4.4v-5.7h31.3v11.2h-6.4v-5.4h-13.1v10.3h11v6.2h-11v13.2h12.9v-6.5h6.6v12.1H342.8z M320,172.2
		L307.2,136h-2.9v-5.7h14.4v5.7H315l7.6,22.6l7.6-22.6h-3.9v-5.7h13.9v5.7h-2.8l-12.5,36.2H320L320,172.2z M277.6,165.7h4.4v5.7
		h-14.7v-5.7h3.3L281,136h-4.4v-5.7h21v5.7h-4.7l10.2,29.7h3.8v5.7h-15.6v-5.7h4.4l-2.5-7.5h-12.9L277.6,165.7z M281.9,152.6h9.3
		l-4.6-13.9L281.9,152.6z M243.7,165.7h5v5.7H232v-5.7h4.4V136H232v-5.7h16.9c5.2,0,8.9,0.8,11.3,2.5s3.5,4.4,3.5,8
		c0,2.3-0.6,4.1-1.7,5.6c-1.2,1.5-2.9,2.6-5.3,3.4c2.1,0.3,3.6,1,4.5,2.1s1.4,2.8,1.4,5v8.6h3.9v5.7h-11.3v-10.3
		c0-3.5-0.5-5.9-1.6-6.9c-1.1-1.1-3.1-1.6-6-1.6h-3.8L243.7,165.7L243.7,165.7z M243.7,136.1v10.8h5.4c2.6,0,4.4-0.4,5.6-1.3
		c1.1-0.9,1.7-2.2,1.7-4.1c0-1.9-0.6-3.3-1.7-4.1c-1.2-0.9-3-1.3-5.6-1.3L243.7,136.1L243.7,136.1z M217.2,165.7h5.3v5.7h-18v-5.7
		h5.3V136h-5.4v5.9h-6.6v-11.6H229v11.6h-6.6V136H217v29.7H217.2L217.2,165.7z"/>
	<g>
		<g>
			<g>
				<defs>
					<rect id="SVGID_1_" x="14.3" y="8.3" width="178" height="178"/>
				</defs>
				<clipPath id="SVGID_2_">
					<use xlink:href="#SVGID_1_"  style="overflow:visible;"/>
				</clipPath>
				<g class="st2">
					<g>
						<g>
							<g>
								<g>
									<defs>
										<rect id="SVGID_3_" x="13.3" y="10.3" width="567.6" height="224"/>
									</defs>
									<clipPath id="SVGID_4_">
										<use xlink:href="#SVGID_3_"  style="overflow:visible;"/>
									</clipPath>
									<path class="st3" d="M31.3,97.3c0,38.2,31,69.1,69.3,69.1s69.3-30.9,69.3-69.1s-31-69.1-69.3-69.1
										C62.3,28.2,31.3,59.1,31.3,97.3"/>
								</g>
							</g>
						</g>
					</g>
					<g>
						<g>
							<g>
								<g>
									<defs>
										<rect id="SVGID_5_" x="13.3" y="10.3" width="567.6" height="224"/>
									</defs>
									<clipPath id="SVGID_6_">
										<use xlink:href="#SVGID_5_"  style="overflow:visible;"/>
									</clipPath>
									<path class="st4" d="M31.3,97.3c0,3.8,0.3,7.5,0.9,11.1l19-12.5l22.1-5.9l33.9,2.5l22.4-2.2l17.1-7.5l0.6-21.1l-8-21.7
										c-11.1-7.4-24.4-11.8-38.7-11.8C62.3,28.2,31.3,59.1,31.3,97.3"/>
								</g>
							</g>
						</g>
					</g>
					<g>
						<g>
							<g>
								<g>
									<defs>
										<rect id="SVGID_7_" x="13.3" y="10.3" width="567.6" height="224"/>
									</defs>
									<clipPath id="SVGID_8_">
										<use xlink:href="#SVGID_7_"  style="overflow:visible;"/>
									</clipPath>
									<path class="st5" d="M127.5,46.3c4.1,0,7.5,3.3,7.5,7.5c0,4.1-3.3,7.5-7.5,7.5c-4.1,0-7.5-3.3-7.5-7.5
										C120,49.7,123.3,46.3,127.5,46.3"/>
								</g>
							</g>
						</g>
					</g>
					<g>
						<g>
							<g>
								<g>
									<defs>
										<rect id="SVGID_9_" x="13.3" y="10.3" width="567.6" height="224"/>
									</defs>
									<clipPath id="SVGID_10_">
										<use xlink:href="#SVGID_9_"  style="overflow:visible;"/>
									</clipPath>
									<path class="st6" d="M14.4,99.5c0.5-0.4,1-0.8,1.5-1.3c2.3-1.8,3.8-3.4,6.4-4.4c0.2-0.2,0.3-0.3,0.5-0.5
										c1.8-1.5,3.3-3.1,5.3-4.4c0,0,0.1,0,0.1-0.1c1.3-6.7,4.2-12.6,8.4-17.9c0.3-0.3,0.6-0.6,0.8-1c2-2.5,4.5-4.5,7.9-4.4
										c3.5,0.1,6.2,2.6,8.4,5.1c0.7,0.8,1.3,1.6,1.9,2.4c0.4-0.4,0.9-0.7,1.4-1.1c1.1-0.8,2.2-1.4,3.2-2.2c1-0.7,1.5-1.5,2-2.6
										c1.3-3.1,3.2-5.5,4.9-8.4c0.5-1,0.9-2.2,1.4-3.3c0.8-1.7,1.5-3.1,2.7-4.6c2.4-2.8,5-5.5,7.6-8.2c2.1-2.3,5.1-3.2,8.2-2.5
										c3.2,0.7,5.9,2.3,7.7,5.1c0.8,1.2,1.6,2.3,2.3,3.5c0.7,1,1.3,1.7,2.4,2.3c2.7,1.6,4.4,3.9,6.3,6.3c2.2,0.3,4.4,1,6.3,2.2
										c2,1.2,4.1,1.8,6.4,2c1.2,0.1,2.5,0.2,3.7,0.5c3.2,0.6,5.4,2.4,7.2,4.9c2.1,2.9,4.6,5.5,6.8,8.3c0.4,0.6,1.2,1.5,1.9,1.7
										l1.2,0.4l0.4,0.5c0.5,0.3,1.1,0.5,1.6,0.7c1.2,0.6,2.4,1.1,3.6,1.8c0.8,0.4,1.6,0.8,2.4,1.3c1.6,1,6.1-0.1,7.9-0.7
										c2.6-0.9,4.8,0.6,6.2,2.7c0.7,1,1.2,2.1,1.8,3.2c1.7,3.3,3.2,6.8,4.7,10.2c4.4,10.1,8.6,20.4,12.7,30.6l0.5,1.2
										c-12.6,31.9-43.8,54.4-80.3,54.4c-46.5,0-84.4-36.7-86.2-82.6C14.4,100.3,14.4,99.9,14.4,99.5L14.4,99.5z"/>
								</g>
							</g>
						</g>
					</g>
					<g>
						<g>
							<g>
								<g>
									<defs>
										<rect id="SVGID_11_" x="13.3" y="10.3" width="567.6" height="224"/>
									</defs>
									<clipPath id="SVGID_12_">
										<use xlink:href="#SVGID_11_"  style="overflow:visible;"/>
									</clipPath>
									<path class="st7" d="M100.6,28c38.3,0,69.3,31,69.3,69.3s-31,69.3-69.3,69.3s-69.3-31.1-69.3-69.3
										C31.3,59,62.3,28,100.6,28 M100.6,23c41,0,74.3,33.3,74.3,74.3s-33.3,74.3-74.3,74.3s-74.3-33.3-74.3-74.3
										S59.5,23,100.6,23z"/>
								</g>
							</g>
						</g>
					</g>
					<g>
						<g>
							<g>
								<g>
									<defs>
										<rect id="SVGID_13_" x="13.3" y="10.3" width="567.6" height="224"/>
									</defs>
									<clipPath id="SVGID_14_">
										<use xlink:href="#SVGID_13_"  style="overflow:visible;"/>
									</clipPath>
									<path class="st8" d="M111,67.3c-0.6,1.4-0.4,3.2-0.6,4.8c-0.1,0.9-0.3,1.8-0.6,2.6c-0.2,0.5-0.7,0.8-1.1,1.3
										c-0.1,0-0.3-0.1-0.4-0.1c-0.3-1.4-0.6-2.7-0.9-4.1c-0.2-0.7-0.3-1.4-0.6-2c-0.5-0.9-0.5-1.7-0.1-2.7c0.3-0.6,0.1-1.4,0-2.1
										c-0.1-0.6-0.4-1.2-0.6-1.8c0.1-0.2,0.3-0.4,0.4-0.5c1.2,0.6,2.3,1.2,3.5,1.8C111.4,65,111.7,65.7,111,67.3 M178.2,134.7
										c-14,28.7-43.5,48.5-77.7,48.5c-44.5,0.1-81.2-33.7-85.7-76.9c0.9-1.9,2.4-3.1,4-4.4c1.9-1.5,3.5-3.3,5.9-4
										c0.5-0.1,0.8-0.7,1.2-1.1c1.6-1.4,3.1-2.9,4.8-4.1c1.1-0.8,1.8-1.6,2-2.8c1.1-6,3.8-11.3,7.5-16.1c0.3-0.3,0.6-0.6,0.8-1
										c3.4-4.3,5.9-2.9,9.2,0.9c1.2,1.4,2.2,2.9,3.4,4.2c1.5,1.7,2.4,1.5,3.8-0.3c0.6-0.8,1.5-1.5,2.3-2.1c1-0.8,2.1-1.4,3.2-2.1
										c1.6-1.2,2.7-2.6,3.5-4.6c1.2-2.8,3.1-5.2,4.6-7.9c0.6-1.1,1-2.4,1.6-3.5c0.6-1.2,1.2-2.6,2.1-3.6c2.4-2.8,5-5.4,7.5-8.1
										c1-1.1,2.3-1.5,3.7-1.1c2,0.5,3.7,1.3,4.9,3.1c0.8,1.2,1.6,2.3,2.4,3.5c1,1.5,2.2,2.8,3.9,3.8c2.1,1.2,3.6,3.5,5.2,5.4
										c0.7,0.9,1.4,1.3,2.6,1.5c1.7,0.2,3.4,0.8,4.8,1.6c2.6,1.5,5.4,2.4,8.4,2.6c1.1,0.1,2.1,0.2,3.2,0.4
										c1.9,0.3,3.1,1.5,4.3,3.1c2.1,2.9,4.7,5.5,6.9,8.4c1.2,1.5,2.4,2.8,4.1,3.3c0.1,0.3,4.8,2.2,8.2,4.2
										c2.9,1.7,7.8,1,11.7-0.2C157.9,84.8,168.7,110.8,178.2,134.7z M122.5,68.9c-0.5,0.4-1.4,0.9-1.8,0.7
										c-1.1-0.5-1.9-1.4-3.1-2.2c1.2-0.7,4.4-0.5,4.9,0.3C122.8,68,122.7,68.7,122.5,68.9z"/>
								</g>
							</g>
						</g>
					</g>
					<g>
						<g>
							<g>
								<g>
									<defs>
										<rect id="SVGID_15_" x="13.3" y="10.3" width="567.6" height="224"/>
									</defs>
									<clipPath id="SVGID_16_">
										<use xlink:href="#SVGID_15_"  style="overflow:visible;"/>
									</clipPath>
									<path class="st9" d="M98.6,108.3c27.4,0,53,5.3,74.8,14.4c1.6,4,3.2,8,4.8,12c-14,28.7-43.5,48.5-77.7,48.5
										c-37.9,0-70.1-24.4-81.7-58.3C41.6,114.4,69.1,108.3,98.6,108.3"/>
								</g>
							</g>
						</g>
					</g>
					<g>
						<g>
							<g>
								<g>
									<defs>
										<rect id="SVGID_17_" x="13.3" y="10.3" width="567.6" height="224"/>
									</defs>
									<clipPath id="SVGID_18_">
										<use xlink:href="#SVGID_17_"  style="overflow:visible;"/>
									</clipPath>
									<path class="st10" d="M111,67.3c-0.6,1.4-0.4,3.2-0.6,4.8c-0.1,0.9-0.3,1.8-0.6,2.6c-0.2,0.5-0.7,0.8-1.1,1.3
										c-0.1,0-0.3-0.1-0.4-0.1c-0.3-1.4-0.6-2.7-0.9-4.1c-0.2-0.7-0.3-1.4-0.6-2c-0.5-0.9-0.5-1.7-0.1-2.7c0.3-0.6,0.1-1.4,0-2.1
										c-0.1-0.6-0.4-1.2-0.6-1.8c0.1-0.2,0.3-0.4,0.4-0.5c1.2,0.6,2.3,1.2,3.5,1.8C111.4,65,111.7,65.7,111,67.3 M15.3,110.4
										c-0.3-1.7-0.5-3.3-0.6-5c1.6-1.3,3-2.5,4.1-3.5c1.9-1.5,3.5-3.3,5.9-4c0.5-0.1,0.8-0.7,1.2-1.1c1.6-1.4,3.1-2.9,4.8-4.1
										c1.1-0.8,1.8-1.6,2-2.8c1.1-6,3.8-11.3,7.5-16.1c0.3-0.3,0.6-0.6,0.8-1c3.4-4.3,5.9-2.9,9.2,0.9c1.2,1.4,2.2,2.9,3.4,4.2
										c1.5,1.7,2.4,1.5,3.8-0.3c0.6-0.8,1.5-1.5,2.3-2.1c1-0.8,2.1-1.4,3.2-2.1c1.6-1.2,2.7-2.6,3.5-4.6c1.2-2.8,3.1-5.2,4.6-7.9
										c0.6-1.1,1-2.4,1.6-3.5c0.6-1.2,1.2-2.6,2.1-3.6c2.4-2.8,5-5.4,7.5-8.1c1-1.1,2.3-1.5,3.7-1.1c2,0.5,3.7,1.3,4.9,3.1
										c0.8,1.2,1.6,2.3,2.4,3.5c1,1.5,2.2,2.8,3.9,3.8c2.1,1.2,3.6,3.5,5.2,5.4c0.7,0.9,1.4,1.3,2.6,1.5c1.7,0.2,3.4,0.8,4.8,1.6
										c2.6,1.5,5.4,2.4,8.4,2.6c1.1,0.1,2.1,0.2,3.2,0.4c1.9,0.3,3.1,1.5,4.3,3.1c2.1,2.9,4.7,5.5,6.9,8.4c1.6,2,3.2,3.5,5.9,3.6
										c1.2,0,2.5,0.6,3.6,1.1c1.4,0.6,2.6,1.5,2.6,3.3c0,0.7-5.8-1.3-7.5-0.7c-2,0.8-3.8,0.3-5.8-0.2c-1.9-0.5-3.8-1-5.8-1.3
										c-0.8-0.1-1.7,0.1-2.4,0.5c-1.3,0.7-2.3,0.7-3.6,0c-1.5-1-3-0.6-4.7,0c-1.6,0.5-3.4,0.2-5.1,0.2c-0.3,0-0.5-0.7-0.7-1.1
										c-2.5-5.2-4.4-10.7-5.3-16.4c-0.8-5.2-4-8.8-8-11.8c-1-0.7-1.8-1.6-2.5-2.6c-1.1-1.5-1.9-3.1-3-4.6
										c-0.4-0.6-0.9-1.1-1.5-1.4c-1.1-0.6-2-0.1-2.3,1.1c-0.5,2-1.1,4.1-1.6,6.1c-0.1,0.4-0.2,0.7-0.1,1.1
										c0.2,3.6-0.3,7-1.2,10.5c-0.1,0.5-0.2,0.9-0.2,1.4c-0.1,1.7-0.3,3.3-2.2,4.3c-0.7,0.3-1.1,1.6-1.2,2.5
										c-0.1,1.9,0.3,3.8,0.4,5.8c0,1.2,0,2.3-0.2,3.5c-0.2,1.1-0.9,1.7-2.1,1.2c-0.7-0.4-1.7-0.8-2.3-1.5c-1.7-2-3.3-4.1-4.9-6.2
										c-1.1-1.5-2.5-2.1-4.2-2.2c-1.6-0.1-2.8,0.9-3.1,2.5c-0.2,1-0.2,2-0.3,3.2c-1-0.9-1.9-1.8-2.9-2.6
										c-0.8-0.7-1.5-0.6-2.1,0.3c-0.1,0.2-0.2,0.3-0.3,0.5c-1.9,2.4-2.7,2.5-4.9,0.2c-1.2-1.3-2.2-2.8-3.4-4.1
										c-1-1.1-2.2-2-3.3-3l-0.5,0.2c-0.2,1.4-0.5,2.8-0.7,4.2c-0.8,4.5-1.7,8.9-2.5,13.4c-0.3,1.6-0.1,1.7,1.4,1.6s3,0,4.5,0.2
										c0.4,0,0.9,0.7,1,1.1c0.4,2.7,0.8,5.4-1.4,7.7c-0.3,0.3-0.6,0.7-0.6,1.1c-0.1,2.1-1.6,2.9-3.3,3.4
										c-2.3,0.7-4.5,1.2-6.9,0.7c-0.8-0.2-1.7,0.2-2.6,0.4c-1,0.3-2,0.7-3.1,1c-0.3,0.1-0.9-0.1-1-0.3c-0.6-0.9-1.4-0.8-2.2-0.5
										c-0.4,0.2-0.8,0.5-1.2,0.7C23.7,108.8,19.6,110,15.3,110.4z M122.5,68.9c-0.5,0.4-1.4,0.9-1.8,0.7
										c-1.1-0.5-1.9-1.4-3.1-2.2c1.2-0.7,4.4-0.5,4.9,0.3C122.8,68,122.7,68.7,122.5,68.9z"/>
								</g>
							</g>
						</g>
					</g>
					<g>
						<g>
							<g>
								<g>
									<defs>
										<rect id="SVGID_19_" x="13.3" y="10.3" width="567.6" height="224"/>
									</defs>
									<clipPath id="SVGID_20_">
										<use xlink:href="#SVGID_19_"  style="overflow:visible;"/>
									</clipPath>
									<path class="st11" d="M94.2,58.8c-0.6,2-0.1,3.7,1.4,5.5C95.2,62.2,96.2,60.2,94.2,58.8 M103.1,83.2c0.8-1.3,0.8-3.7,0.1-5
										C102.3,79.7,102.2,81.6,103.1,83.2z M87.6,64.4c0.2,0,0.3,0,0.5,0l-0.3-3.8C87.2,61.8,86.9,63.1,87.6,64.4z M87.2,53.3
										c-0.2,0.1-0.4,0.1-0.7,0.2c0.2,0.7,0.4,1.5,0.6,2.2c0.3-0.1,0.5-0.2,0.8-0.3C87.7,54.7,87.5,54,87.2,53.3z M102.4,75.7
										c-1.3-4-2.7-7.9-4.1-12.1c-0.1,1.3-0.3,2.3-0.2,3.3c0.1,2.5,0.2,4.9,0.4,7.4c0.1,1.2,0.2,2.4-0.8,3.1
										c-1.3,0.9-1.2,1.9-0.5,3c0.6,1,1.1,1.9,1.9,3.1c0.4-0.8,0.8-1.3,0.9-1.9c0.2-1.8,1-3.2,2.1-4.5
										C102.4,76.8,102.6,76.1,102.4,75.7z"/>
								</g>
							</g>
						</g>
					</g>
					<g>
						<g>
							<g>
								<g>
									<defs>
										<rect id="SVGID_21_" x="13.3" y="10.3" width="567.6" height="224"/>
									</defs>
									<clipPath id="SVGID_22_">
										<use xlink:href="#SVGID_21_"  style="overflow:visible;"/>
									</clipPath>
									<path class="st12" d="M126.7,96.6c-0.7,0,0.4,0.1-0.3,0.1c-0.4,0-0.7,0-1.1,0c-1.7,0-3.4,0-5,0c-1.5,0-1.1,0-2.6-0.1
										c-0.7,0-1.5-0.1-2.2-0.2c-0.3,0-0.4-0.3-0.7-0.5l-0.1-0.1l-0.1-0.4v-0.2c0-0.1,0-0.1,0-0.2v-0.2l0.3-0.3h0.2
										c7,0.1,10.3,0.1,17.2,0.1h0.5v1.2h-0.4l-0.1,0.1c-0.4,0.4-0.8,0.5-1.1,0.2c-0.1,0.1-0.2,0.1-0.3,0.2s-0.2,0-0.3,0
										c-0.3,0-0.6,0.1-0.9,0.1c-0.1,0-0.2-0.1-0.3-0.1c-0.2,0.1-0.4,0.2-0.7,0.2c-0.5,0-1.1,0-1.6,0
										C126.9,96.7,126.8,96.6,126.7,96.6 M125.6,93.2c-0.3,0.2-0.6,0.1-1,0.1c-1.3-0.1-2.5,0.1-3.8,0.2c-1.1,0-2.1-0.1-3.2-0.1
										c-1.2,0-0.5,0-1.7-0.1c-0.6,0-1.1-0.1-1.7-0.2c-0.3-0.1-0.5-0.4-0.7-0.8l-0.1-0.3l0.3-0.7h0.3c4.7-0.3,7.3,0.2,12-0.1l0,0
										c0.5,0,1,0,1.5,0c0.2,0-1.2,0-1,0.1h0.2l0.2,0.3v0.2c0,0.1,0,0.1,0,0.2v0.3l-0.2,0.4h-0.2c-0.8,0.1,0.2,0.2-0.6,0.4
										L125.6,93.2L125.6,93.2z M113.9,87.9c3.5,0.1,5.1,0.1,8.6,0.1h0.2l0.3,0.3v0.2c0,0.1,0,0.1,0,0.2V89l-0.2,0.5h-0.2
										c-0.2,0-0.4,0-0.6,0.1s-0.4,0.2-0.6,0.2s-0.6,0.3-0.8,0.3c-0.5,0.1-0.8-0.1-1.3-0.1c-1.3,0-0.7,0.1-2,0.1c-1,0-2-0.1-3-0.2
										c-0.3,0-0.5-0.3-0.7-0.5l-0.1-0.1l-0.1-0.4l0.1-0.2c0-0.1,0.1-0.2,0.1-0.3v-0.2l0.3-0.2C113.9,88,113.9,87.9,113.9,87.9z
										 M135.7,99.4L135.7,99.4c-0.4,0.1-0.8,0.2-1.1,0.3l0,0l-0.8,0.1h-0.1l0,0l-0.1,0.1l-0.9,0.1l0,0l0,0
										c-0.6,0-1.1-0.1-1.7-0.1c-0.8-0.1-1.6,0-2.4,0c-1.2,0.1-0.7,0.1-1.9,0c-1.2,0-2.4-0.1-3.6-0.1c-1.6,0.1-3.2-0.4-4.7-0.1
										c-0.9,0.2,0.1,0-0.8-0.1c-0.3,0-0.5-0.3-0.7-0.5l-0.1-0.1l-0.1-0.4v-0.2c0-0.1,0-0.2,0.1-0.3v-0.2l0.3-0.3h0.2
										c7.9,0.1,12.1,0.2,19.9,0.3h0.5v1.2l-0.4,0.1c0,0-0.2,0.1-0.2,0.2l0,0H137l-0.7,0.1L135.7,99.4L135.7,99.4z"/>
								</g>
							</g>
						</g>
					</g>
					<g>
						<g>
							<g>
								<g>
									<defs>
										<rect id="SVGID_23_" x="13.3" y="10.3" width="567.6" height="224"/>
									</defs>
									<clipPath id="SVGID_24_">
										<use xlink:href="#SVGID_23_"  style="overflow:visible;"/>
									</clipPath>
									<path class="st13" d="M72.9,85c0,0.1,0,0.1,0,0.2l0.1,0.3L72.7,86h-0.4c-0.8,0.2-1.6,0.3-2.4,0.5c-1.9,0.5-3.7-0.1-5.4,0.3
										c-1.4,0.3-2.8,0.1-4.2,0c-1.6,0-3.3-0.1-4.9-0.2c-0.5,0-0.7-0.3-1.1-0.5l-0.4-0.2l0.1-0.8l0.5-0.1c0.4-0.1,0.6-0.2,1-0.2
										c1.2,0,2.4,0,3.6-0.1c1.6,0,3.3-0.3,4.9-0.1c1.6,0.2,3.3,0,4.9,0c1.1,0,2.1,0,3.2,0h0.3l0.4,0.3L72.9,85z M93.5,97.3
										c-0.3,0.1-0.4,0.2-0.7,0.2c-0.6,0-1.2,0-1.8,0c-1.3,0-2.5,0.1-3.8,0.2c-1,0-1.9,0-2.9,0c-2.4,0-4.8-0.1-7.2-0.2
										c-0.5,0-0.9-0.2-1.4-0.4l-0.3-0.1l-0.3-0.5l0.1-0.3c0-0.1,0.1-0.2,0.1-0.3l0.1-0.2l0.4-0.3h0.3c3.6-0.1,7.2-0.4,10.8-0.1
										c3,0.2,6-0.5,9,0.1l0.3,0.1l0.3,0.4v0.2c0,0.1,0,0.2,0,0.3v0.3l-0.4,0.4h-0.3C95,97.2,94.3,97.2,93.5,97.3z M76.3,91.9
										c4.1,0,8.2,0,12.2,0h0.2l0.4,0.2l0.1,0.2c0,0.1,0.1,0.1,0.1,0.2l0.1,0.3l-0.3,0.5l-0.3,0.1c-0.8,0.2-1.6,0.5-2.5,0.6
										c-1.4,0.1-2.8,0.1-4.2,0.2c-1.7,0-3.7-0.1-5.3-0.2c-0.6,0-0.7-0.3-1.1-0.5l-0.2-0.2l-0.2-0.4l0.1-0.2
										c0-0.1,0.1-0.2,0.1-0.3l0.1-0.2L76,92L76.3,91.9C76.3,92,76.3,91.9,76.3,91.9z M77.6,89.6c-1.8,0.7-3.1,0.1-4.8,0.3
										c-1.9,0.2-3.8,0.2-5.7,0.2c-1.6,0-3.1-0.1-4.7-0.2c-0.5,0-0.7-0.3-1.1-0.4l-0.2-0.1L60.9,89c0.1-0.2,0.1-0.4,0.2-0.6
										l0.1-0.2l0.4-0.3h0.3c5.8,0,11.5,0,17.3,0h0.2l0.4,0.2l0.1,0.2c0,0.1,0.1,0.1,0.1,0.2l0.1,0.3l-0.6,0.5h-0.3
										C78.7,89.4,78,89.5,77.6,89.6z M68.2,93.2c-1.8,0.8-3.4,0-5.1,0.4c-0.1,0-0.2,0-0.3,0.1h-0.1h-0.1h-0.1
										c-1.9-0.2-3.8-0.5-5.6-0.9l-0.7-0.1l0.2-1.2h0.7c1.3,0,2.6,0,4,0c2.4,0,4.9-0.2,7.3-0.2c0.8,0,1.6,0.2,2.4,0.5l0.6,0.3
										L71,93.2l-0.7-0.3C69.8,92.8,69.1,93.4,68.2,93.2z"/>
								</g>
							</g>
						</g>
					</g>
					<g>
						<g>
							<g>
								<g>
									<defs>
										<rect id="SVGID_25_" x="13.3" y="10.3" width="567.6" height="224"/>
									</defs>
									<clipPath id="SVGID_26_">
										<use xlink:href="#SVGID_25_"  style="overflow:visible;"/>
									</clipPath>
									<path class="st14" d="M146,120.6c2.9-0.7,5.6-7.4,4.4-11.7c-2.2,0.6-5,0.8-7.8-1.4c-0.8,1.4-0.5,4.5-0.3,6.1
										c-17.4-16.9-2.5-28.2,3-28.7c0.4-0.7,0.8-1.3,0.6-2.6c0-6.8,28.3-13,35.8,12.3l0,0c0,0,2.2,5.3,7.6,9.2
										c-0.8,0.9-3.9,0-6.1-1.3c0,0.3,0.7,6,6.5,10.8c-3.3,1.7-6.1-0.6-6.5-1.3c-1.4,29.9-12.1,46.9-42.2,53.5
										c-35.6,6.6-64.8-10.3-71.1-46.8C96.8,152.2,122.5,99.7,146,120.6z"/>
								</g>
							</g>
						</g>
					</g>
					<g>
						<g>
							<g>
								<g>
									<defs>
										<rect id="SVGID_27_" x="13.3" y="10.3" width="567.6" height="224"/>
									</defs>
									<clipPath id="SVGID_28_">
										<use xlink:href="#SVGID_27_"  style="overflow:visible;"/>
									</clipPath>
									<path class="st15" d="M146,120.6c2.9-0.7,5.6-7.4,4.4-11.7c-2.2,0.6-5,0.8-7.8-1.4c-0.8,1.4-0.5,4.5-0.3,6.1
										c-17.4-16.9-2.5-28.2,3-28.7c0.4-0.7,0.8-1.3,0.6-2.6c0-6.8,28.3-13,35.8,12.3l0,0c0,0,2.2,5.3,7.6,9.2
										c-0.8,0.9-3.9,0-6.1-1.3c0,0.3,0.7,6,6.5,10.8c-3.3,1.7-6.1-0.6-6.5-1.3c-4.3,30.5-13.7,47.2-42.2,53.5
										c-35.6,6.6-64.8-10.3-71.1-46.8C96.8,152.2,122.5,99.7,146,120.6"/>
								</g>
							</g>
						</g>
					</g>
					<g>
						<g>
							<g>
								<g>
									<defs>
										<rect id="SVGID_29_" x="13.3" y="10.3" width="567.6" height="224"/>
									</defs>
									<clipPath id="SVGID_30_">
										<use xlink:href="#SVGID_29_"  style="overflow:visible;"/>
									</clipPath>
									<path class="st16" d="M150.4,108.9c13.3-1.8,18.8-15.2,16.4-21.4c-3.4-8.6-13-8.9-20.9-5.3
										C148.8,84,156.3,108.4,150.4,108.9"/>
								</g>
							</g>
						</g>
					</g>
					<g>
						<g>
							<g>
								<g>
									<defs>
										<rect id="SVGID_31_" x="13.3" y="10.3" width="567.6" height="224"/>
									</defs>
									<clipPath id="SVGID_32_">
										<use xlink:href="#SVGID_31_"  style="overflow:visible;"/>
									</clipPath>
									<path class="st17" d="M162.3,88.2c0.1,1.7-1.2,3.2-2.9,3.3c-1.7,0.1-3.2-1.2-3.3-2.9c-0.1-1.7,1.2-3.2,2.9-3.3
										C160.7,85.2,162.2,86.5,162.3,88.2"/>
								</g>
							</g>
						</g>
					</g>
					<g>
						<g>
							<g>
								<g>
									<defs>
										<rect id="SVGID_33_" x="13.3" y="10.3" width="567.6" height="224"/>
									</defs>
									<clipPath id="SVGID_34_">
										<use xlink:href="#SVGID_33_"  style="overflow:visible;"/>
									</clipPath>
									<path class="st18" d="M142.4,107.3c-0.7,1.8,2.2-21.4,2.8-22.2c0.5-0.7,0.9-1.6,0.7-2.9c4.2,2.6,12.3,17,7.2,25.5
										C152.7,108.4,146.7,111.2,142.4,107.3"/>
								</g>
							</g>
						</g>
					</g>
					<g>
						<g>
							<g>
								<g>
									<defs>
										<rect id="SVGID_35_" x="13.3" y="10.3" width="567.6" height="224"/>
									</defs>
									<clipPath id="SVGID_36_">
										<use xlink:href="#SVGID_35_"  style="overflow:visible;"/>
									</clipPath>
									<path class="st19" d="M142.3,113.5c-16.6-15.9-3.8-28,3-28.7c3.1,0.9,6.2,9.1,6.7,15.3c0.2,2.5-2.4,5.4-4.1,5.5
										C146.1,105.6,140.8,104,142.3,113.5"/>
								</g>
							</g>
						</g>
					</g>
					<g>
						<g>
							<g>
								<g>
									<defs>
										<rect id="SVGID_37_" x="13.3" y="10.3" width="567.6" height="224"/>
									</defs>
									<clipPath id="SVGID_38_">
										<use xlink:href="#SVGID_37_"  style="overflow:visible;"/>
									</clipPath>
									<g class="st20">
										<g>
											<g>
												<g>
													<g>
														<defs>
															<rect id="SVGID_39_" x="70" y="115.5" width="83.4" height="47"/>
														</defs>
														<clipPath id="SVGID_40_">
															<use xlink:href="#SVGID_39_"  style="overflow:visible;"/>
														</clipPath>
														<path class="st21" d="M70,118.6c26.8,33.6,52.5-18.9,75.9,2.1c6.1,5,14.7,27.3-3.6,37.6
															C122.1,167.3,77.7,165.7,70,118.6"/>
													</g>
												</g>
											</g>
										</g>
									</g>
								</g>
							</g>
						</g>
					</g>
					<g>
						<g>
							<g>
								<g>
									<defs>
										<rect id="SVGID_41_" x="13.3" y="10.3" width="567.6" height="224"/>
									</defs>
									<clipPath id="SVGID_42_">
										<use xlink:href="#SVGID_41_"  style="overflow:visible;"/>
									</clipPath>
									<path class="st22" d="M70,118.6c19.3,24.2,38.1,3.6,55.9-1.8c6.8-2.1,14.3,9.2,5.6,13.9c7,0,10.5,10.5-1.3,15.8
										c11.3,3.2,4.6,14.6,0,15.4C108,165.4,76.4,157.6,70,118.6"/>
								</g>
							</g>
						</g>
					</g>
					<g>
						<g>
							<g>
								<g>
									<defs>
										<rect id="SVGID_43_" x="13.3" y="10.3" width="567.6" height="224"/>
									</defs>
									<clipPath id="SVGID_44_">
										<use xlink:href="#SVGID_43_"  style="overflow:visible;"/>
									</clipPath>
									<path class="st23" d="M70,118.6c15.3,19.2,30.2,10.3,44.6,3c3.8-1.9,10.1,7.1,1.4,11.8c7,0,10.5,10.5-1.3,15.8
										c11.3,3.2,6.8,13.6,2.2,13.3C97,161.4,75.2,150.3,70,118.6"/>
								</g>
							</g>
						</g>
					</g>
					<g>
						<g>
							<g>
								<g>
									<defs>
										<rect id="SVGID_45_" x="13.3" y="10.3" width="567.6" height="224"/>
									</defs>
									<clipPath id="SVGID_46_">
										<use xlink:href="#SVGID_45_"  style="overflow:visible;"/>
									</clipPath>
									<path class="st24" d="M24,133.2c46-2.3,91.7,6.8,133.3,26.7l1.6,0.8c-15.4,14.1-35.8,22.6-58.3,22.6
										c-34.8,0-64.7-20.5-78.4-50L24,133.2z"/>
								</g>
							</g>
						</g>
					</g>
					<g>
						<g>
							<g>
								<g>
									<defs>
										<rect id="SVGID_47_" x="13.3" y="10.3" width="567.6" height="224"/>
									</defs>
									<clipPath id="SVGID_48_">
										<use xlink:href="#SVGID_47_"  style="overflow:visible;"/>
									</clipPath>
									<path class="st25" d="M155.5,163.6c-39.8-19-84.7-28.6-131.3-26.3c14.4,27.3,43.2,46,76.4,46
										C121.4,183.3,140.6,175.9,155.5,163.6"/>
								</g>
							</g>
						</g>
					</g>
					<g>
						<g>
							<g>
								<g>
									<defs>
										<rect id="SVGID_49_" x="13.3" y="10.3" width="567.6" height="224"/>
									</defs>
									<clipPath id="SVGID_50_">
										<use xlink:href="#SVGID_49_"  style="overflow:visible;"/>
									</clipPath>
									<path class="st26" d="M48.1,171.3c15.9,9.7,34.6,15.3,54.6,15.3c13.7,0,26.8-2.6,38.9-7.4
										C113.4,171.9,84.2,169.4,48.1,171.3"/>
								</g>
							</g>
						</g>
					</g>
					<g>
						<g>
							<g>
								<g>
									<defs>
										<rect id="SVGID_51_" x="13.3" y="10.3" width="567.6" height="224"/>
									</defs>
									<clipPath id="SVGID_52_">
										<use xlink:href="#SVGID_51_"  style="overflow:visible;"/>
									</clipPath>
									<path class="st27" d="M150,167.7c-36.6-13.9-71.5-19.9-117.8-18c15.8,20.4,40.5,33.6,68.4,33.6
										C118.9,183.3,136,177.4,150,167.7"/>
								</g>
							</g>
						</g>
					</g>
					<g>
						<g>
							<g>
								<g>
									<defs>
										<rect id="SVGID_53_" x="13.3" y="10.3" width="567.6" height="224"/>
									</defs>
									<clipPath id="SVGID_54_">
										<use xlink:href="#SVGID_53_"  style="overflow:visible;"/>
									</clipPath>
									<path class="st28" d="M145.6,170.6c-34.1-13.6-65.7-19.1-109.8-16.6c15.8,17.9,39,29.2,64.8,29.2
										C117.1,183.3,132.5,178.6,145.6,170.6"/>
								</g>
							</g>
						</g>
					</g>
					<g>
						<g>
							<g>
								<g>
									<defs>
										<rect id="SVGID_55_" x="13.3" y="10.3" width="567.6" height="224"/>
									</defs>
									<clipPath id="SVGID_56_">
										<use xlink:href="#SVGID_55_"  style="overflow:visible;"/>
									</clipPath>
									<path class="st29" d="M138.7,174.4c-27.2-6.9-55.7-9.7-89.6-8.2c14.4,10.7,32.2,17,51.5,17
										C114.2,183.3,127.2,180.1,138.7,174.4"/>
								</g>
							</g>
						</g>
					</g>
					<g>
						<g>
							<g>
								<g>
									<defs>
										<rect id="SVGID_57_" x="13.3" y="10.3" width="567.6" height="224"/>
									</defs>
									<clipPath id="SVGID_58_">
										<use xlink:href="#SVGID_57_"  style="overflow:visible;"/>
									</clipPath>
									<path class="st30" d="M55.6,170.7c0.2,0.1,0.3,0.2,0.5,0.3c0.4,0.2,0.7,0.4,1.1,0.7c0.2,0.1,0.5,0.3,0.7,0.4
										c0.4,0.2,0.8,0.4,1.2,0.6c0.2,0.1,0.4,0.2,0.6,0.4c0.4,0.2,0.8,0.4,1.2,0.6c0.2,0.1,0.4,0.2,0.6,0.3
										c0.4,0.2,0.9,0.4,1.3,0.6l0.5,0.3c0.5,0.2,0.9,0.4,1.4,0.6l0.5,0.2c0.5,0.2,1,0.4,1.5,0.6l0.4,0.2c0.5,0.2,1,0.4,1.6,0.6
										l0.4,0.1c0.5,0.2,1.1,0.4,1.6,0.6l0.3,0.1c0.6,0.2,1.1,0.4,1.7,0.6l0.3,0.1c0.6,0.2,1.1,0.4,1.7,0.6l0.3,0.1
										c0.6,0.2,1.2,0.4,1.8,0.5l0.2,0.1c0.6,0.2,1.3,0.3,1.9,0.5H79c0.6,0.2,1.3,0.3,1.9,0.5H81c0.7,0.2,1.3,0.3,2,0.4h0.1
										c0.7,0.1,1.3,0.3,2,0.4h0.1c0.7,0.1,1.3,0.2,2,0.3h0.1c0.7,0.1,1.4,0.2,2,0.3h0.1c0.7,0.1,1.4,0.2,2,0.2h0.1
										c0.7,0.1,1.4,0.1,2.1,0.2h0.1c0.7,0.1,1.4,0.1,2.1,0.1l0,0c1.5,0.1,2.9,0.1,4.4,0.1s3,0,4.4-0.1l0,0c0.7,0,1.4-0.1,2.2-0.1
										l0,0c0.7-0.1,1.4-0.1,2.2-0.2l0,0c0.7-0.1,1.4-0.2,2.1-0.2l0,0c0.7-0.1,1.4-0.2,2.1-0.3h0.1c0.7-0.1,1.4-0.2,2-0.3h0.1
										c0.7-0.1,1.3-0.2,2-0.4h0.1c0.7-0.1,1.3-0.3,2-0.4h0.1c0.7-0.2,1.3-0.3,2-0.5h0.2c0.6-0.2,1.2-0.3,1.8-0.5l0.2-0.1
										c0.6-0.2,1.2-0.3,1.8-0.5l0.2-0.1c0.6-0.2,1.2-0.4,1.7-0.6l0.3-0.1c0.6-0.2,1.1-0.4,1.7-0.6l0.3-0.1
										c0.6-0.2,1.1-0.4,1.6-0.6l0.4-0.1l0.2-0.1C109.4,171.3,85.4,169.1,55.6,170.7"/>
								</g>
							</g>
						</g>
					</g>
				</g>
			</g>
		</g>
	</g>
	<g>
		<g>
			<g>
				<g>
					<defs>
						<rect id="SVGID_59_" x="14.3" y="8.3" width="178" height="178"/>
					</defs>
					<clipPath id="SVGID_60_">
						<use xlink:href="#SVGID_59_"  style="overflow:visible;"/>
					</clipPath>
					<g class="st31">
						<g>
							<g>
								<g>
									<g>
										<defs>
											<rect id="SVGID_61_" x="13.3" y="10.3" width="567.6" height="224"/>
										</defs>
										<clipPath id="SVGID_62_">
											<use xlink:href="#SVGID_61_"  style="overflow:visible;"/>
										</clipPath>
										<g class="st32">
											<g>
												<g>
													<g>
														<g>
															<defs>
																<path id="SVGID_63_" d="M186.8,97.3c0,47.5-38.6,86-86.3,86c-47.6,0-86.2-38.5-86.2-86s38.6-86,86.3-86
																	C148.2,11.3,186.8,49.8,186.8,97.3"/>
															</defs>
															<clipPath id="SVGID_64_">
																<use xlink:href="#SVGID_63_"  style="overflow:visible;"/>
															</clipPath>
															
																<linearGradient id="SVGID_65_" gradientUnits="userSpaceOnUse" x1="78.0818" y1="1326.255" x2="122.9319" y2="1492.295" gradientTransform="matrix(1 0 0 1 0 -1312)">
																<stop  offset="0" style="stop-color:#38AB6E"/>
																<stop  offset="0.25" style="stop-color:#44B079"/>
																<stop  offset="0.71" style="stop-color:#336880"/>
																<stop  offset="1" style="stop-color:#2E5482"/>
															</linearGradient>
															<rect x="14.3" y="11.3" class="st33" width="172.5" height="172"/>
														</g>
													</g>
												</g>
											</g>
										</g>
									</g>
								</g>
							</g>
						</g>
						<g>
							<g>
								<g>
									<g>
										<defs>
											<rect id="SVGID_66_" x="13.3" y="10.3" width="567.6" height="224"/>
										</defs>
										<clipPath id="SVGID_67_">
											<use xlink:href="#SVGID_66_"  style="overflow:visible;"/>
										</clipPath>
										<path class="st34" d="M31.3,97.3c0,38.2,31,69.1,69.3,69.1s69.3-30.9,69.3-69.1s-31-69.1-69.3-69.1
											C62.3,28.2,31.3,59.1,31.3,97.3"/>
									</g>
								</g>
							</g>
						</g>
						<g>
							<g>
								<g>
									<g>
										<defs>
											<rect id="SVGID_68_" x="13.3" y="10.3" width="567.6" height="224"/>
										</defs>
										<clipPath id="SVGID_69_">
											<use xlink:href="#SVGID_68_"  style="overflow:visible;"/>
										</clipPath>
										<path class="st35" d="M31.3,97.3c0,3.8,0.3,7.5,0.9,11.1l19-12.5l22.1-5.9l33.9,2.5l22.4-2.2l17.1-7.5l0.6-21.1l-8-21.7
											c-11.1-7.4-24.4-11.8-38.7-11.8C62.3,28.2,31.3,59.1,31.3,97.3"/>
									</g>
								</g>
							</g>
						</g>
						<g>
							<g>
								<g>
									<g>
										<defs>
											<rect id="SVGID_70_" x="13.3" y="10.3" width="567.6" height="224"/>
										</defs>
										<clipPath id="SVGID_71_">
											<use xlink:href="#SVGID_70_"  style="overflow:visible;"/>
										</clipPath>
										<path class="st36" d="M127.5,46.3c4.1,0,7.5,3.3,7.5,7.5c0,4.1-3.3,7.5-7.5,7.5c-4.1,0-7.5-3.3-7.5-7.5
											C120,49.7,123.3,46.3,127.5,46.3"/>
									</g>
								</g>
							</g>
						</g>
						<g>
							<g>
								<g>
									<g>
										<defs>
											<rect id="SVGID_72_" x="13.3" y="10.3" width="567.6" height="224"/>
										</defs>
										<clipPath id="SVGID_73_">
											<use xlink:href="#SVGID_72_"  style="overflow:visible;"/>
										</clipPath>
										<path class="st37" d="M14.4,99.5c0.5-0.4,1-0.8,1.5-1.3c2.3-1.8,3.8-3.4,6.4-4.4c0.2-0.2,0.3-0.3,0.5-0.5
											c1.8-1.5,3.3-3.1,5.3-4.4c0,0,0.1,0,0.1-0.1c1.3-6.7,4.2-12.6,8.4-17.9c0.3-0.3,0.6-0.6,0.8-1c2-2.5,4.5-4.5,7.9-4.4
											c3.5,0.1,6.2,2.6,8.4,5.1c0.7,0.8,1.3,1.6,1.9,2.4c0.4-0.4,0.9-0.7,1.4-1.1c1.1-0.8,2.2-1.4,3.2-2.2c1-0.7,1.5-1.5,2-2.6
											c1.3-3.1,3.2-5.5,4.9-8.4c0.5-1,0.9-2.2,1.4-3.3c0.8-1.7,1.5-3.1,2.7-4.6c2.4-2.8,5-5.5,7.6-8.2c2.1-2.3,5.1-3.2,8.2-2.5
											c3.2,0.7,5.9,2.3,7.7,5.1c0.8,1.2,1.6,2.3,2.3,3.5c0.7,1,1.3,1.7,2.4,2.3c2.7,1.6,4.4,3.9,6.3,6.3c2.2,0.3,4.4,1,6.3,2.2
											c2,1.2,4.1,1.8,6.4,2c1.2,0.1,2.5,0.2,3.7,0.5c3.2,0.6,5.4,2.4,7.2,4.9c2.1,2.9,4.6,5.5,6.8,8.3c0.4,0.6,1.2,1.5,1.9,1.7
											l1.2,0.4l0.4,0.5c0.5,0.3,1.1,0.5,1.6,0.7c1.2,0.6,2.4,1.1,3.6,1.8c0.8,0.4,1.6,0.8,2.4,1.3c1.6,1,6.1-0.1,7.9-0.7
											c2.6-0.9,4.8,0.6,6.2,2.7c0.7,1,1.2,2.1,1.8,3.2c1.7,3.3,3.2,6.8,4.7,10.2c4.4,10.1,8.6,20.4,12.7,30.6l0.5,1.2
											c-12.6,31.9-43.8,54.4-80.3,54.4c-46.5,0-84.4-36.7-86.2-82.6C14.4,100.3,14.4,99.9,14.4,99.5L14.4,99.5z"/>
									</g>
								</g>
							</g>
						</g>
						<g>
							<g>
								<g>
									<g>
										<defs>
											<rect id="SVGID_74_" x="13.3" y="10.3" width="567.6" height="224"/>
										</defs>
										<clipPath id="SVGID_75_">
											<use xlink:href="#SVGID_74_"  style="overflow:visible;"/>
										</clipPath>
										<path class="st38" d="M100.6,28c38.3,0,69.3,31,69.3,69.3s-31,69.3-69.3,69.3s-69.3-31.1-69.3-69.3
											C31.3,59,62.3,28,100.6,28 M100.6,23c41,0,74.3,33.3,74.3,74.3s-33.3,74.3-74.3,74.3s-74.3-33.3-74.3-74.3
											S59.5,23,100.6,23z"/>
									</g>
								</g>
							</g>
						</g>
						<g>
							<g>
								<g>
									<g>
										<defs>
											<rect id="SVGID_76_" x="13.3" y="10.3" width="567.6" height="224"/>
										</defs>
										<clipPath id="SVGID_77_">
											<use xlink:href="#SVGID_76_"  style="overflow:visible;"/>
										</clipPath>
										<path class="st39" d="M111,67.3c-0.6,1.4-0.4,3.2-0.6,4.8c-0.1,0.9-0.3,1.8-0.6,2.6c-0.2,0.5-0.7,0.8-1.1,1.3
											c-0.1,0-0.3-0.1-0.4-0.1c-0.3-1.4-0.6-2.7-0.9-4.1c-0.2-0.7-0.3-1.4-0.6-2c-0.5-0.9-0.5-1.7-0.1-2.7
											c0.3-0.6,0.1-1.4,0-2.1c-0.1-0.6-0.4-1.2-0.6-1.8c0.1-0.2,0.3-0.4,0.4-0.5c1.2,0.6,2.3,1.2,3.5,1.8
											C111.4,65,111.7,65.7,111,67.3 M178.2,134.7c-14,28.7-43.5,48.5-77.7,48.5c-44.5,0.1-81.2-33.7-85.7-76.9
											c0.9-1.9,2.4-3.1,4-4.4c1.9-1.5,3.5-3.3,5.9-4c0.5-0.1,0.8-0.7,1.2-1.1c1.6-1.4,3.1-2.9,4.8-4.1c1.1-0.8,1.8-1.6,2-2.8
											c1.1-6,3.8-11.3,7.5-16.1c0.3-0.3,0.6-0.6,0.8-1c3.4-4.3,5.9-2.9,9.2,0.9c1.2,1.4,2.2,2.9,3.4,4.2
											c1.5,1.7,2.4,1.5,3.8-0.3c0.6-0.8,1.5-1.5,2.3-2.1c1-0.8,2.1-1.4,3.2-2.1c1.6-1.2,2.7-2.6,3.5-4.6
											c1.2-2.8,3.1-5.2,4.6-7.9c0.6-1.1,1-2.4,1.6-3.5c0.6-1.2,1.2-2.6,2.1-3.6c2.4-2.8,5-5.4,7.5-8.1c1-1.1,2.3-1.5,3.7-1.1
											c2,0.5,3.7,1.3,4.9,3.1c0.8,1.2,1.6,2.3,2.4,3.5c1,1.5,2.2,2.8,3.9,3.8c2.1,1.2,3.6,3.5,5.2,5.4c0.7,0.9,1.4,1.3,2.6,1.5
											c1.7,0.2,3.4,0.8,4.8,1.6c2.6,1.5,5.4,2.4,8.4,2.6c1.1,0.1,2.1,0.2,3.2,0.4c1.9,0.3,3.1,1.5,4.3,3.1
											c2.1,2.9,4.7,5.5,6.9,8.4c1.2,1.5,2.4,2.8,4.1,3.3c0.1,0.3,4.8,2.2,8.2,4.2c2.9,1.7,7.8,1,11.7-0.2
											C157.9,84.8,168.7,110.8,178.2,134.7z M122.5,68.9c-0.5,0.4-1.4,0.9-1.8,0.7c-1.1-0.5-1.9-1.4-3.1-2.2
											c1.2-0.7,4.4-0.5,4.9,0.3C122.8,68,122.7,68.7,122.5,68.9z"/>
									</g>
								</g>
							</g>
						</g>
						<g>
							<g>
								<g>
									<g>
										<defs>
											<rect id="SVGID_78_" x="13.3" y="10.3" width="567.6" height="224"/>
										</defs>
										<clipPath id="SVGID_79_">
											<use xlink:href="#SVGID_78_"  style="overflow:visible;"/>
										</clipPath>
										<path class="st40" d="M98.6,108.3c27.4,0,53,5.3,74.8,14.4c1.6,4,3.2,8,4.8,12c-14,28.7-43.5,48.5-77.7,48.5
											c-37.9,0-70.1-24.4-81.7-58.3C41.6,114.4,69.1,108.3,98.6,108.3"/>
									</g>
								</g>
							</g>
						</g>
						<g>
							<g>
								<g>
									<g>
										<defs>
											<rect id="SVGID_80_" x="13.3" y="10.3" width="567.6" height="224"/>
										</defs>
										<clipPath id="SVGID_81_">
											<use xlink:href="#SVGID_80_"  style="overflow:visible;"/>
										</clipPath>
										<path class="st41" d="M111,67.3c-0.6,1.4-0.4,3.2-0.6,4.8c-0.1,0.9-0.3,1.8-0.6,2.6c-0.2,0.5-0.7,0.8-1.1,1.3
											c-0.1,0-0.3-0.1-0.4-0.1c-0.3-1.4-0.6-2.7-0.9-4.1c-0.2-0.7-0.3-1.4-0.6-2c-0.5-0.9-0.5-1.7-0.1-2.7
											c0.3-0.6,0.1-1.4,0-2.1c-0.1-0.6-0.4-1.2-0.6-1.8c0.1-0.2,0.3-0.4,0.4-0.5c1.2,0.6,2.3,1.2,3.5,1.8
											C111.4,65,111.7,65.7,111,67.3 M15.3,110.4c-0.3-1.7-0.5-3.3-0.6-5c1.6-1.3,3-2.5,4.1-3.5c1.9-1.5,3.5-3.3,5.9-4
											c0.5-0.1,0.8-0.7,1.2-1.1c1.6-1.4,3.1-2.9,4.8-4.1c1.1-0.8,1.8-1.6,2-2.8c1.1-6,3.8-11.3,7.5-16.1c0.3-0.3,0.6-0.6,0.8-1
											c3.4-4.3,5.9-2.9,9.2,0.9c1.2,1.4,2.2,2.9,3.4,4.2c1.5,1.7,2.4,1.5,3.8-0.3c0.6-0.8,1.5-1.5,2.3-2.1
											c1-0.8,2.1-1.4,3.2-2.1c1.6-1.2,2.7-2.6,3.5-4.6c1.2-2.8,3.1-5.2,4.6-7.9c0.6-1.1,1-2.4,1.6-3.5c0.6-1.2,1.2-2.6,2.1-3.6
											c2.4-2.8,5-5.4,7.5-8.1c1-1.1,2.3-1.5,3.7-1.1c2,0.5,3.7,1.3,4.9,3.1c0.8,1.2,1.6,2.3,2.4,3.5c1,1.5,2.2,2.8,3.9,3.8
											c2.1,1.2,3.6,3.5,5.2,5.4c0.7,0.9,1.4,1.3,2.6,1.5c1.7,0.2,3.4,0.8,4.8,1.6c2.6,1.5,5.4,2.4,8.4,2.6
											c1.1,0.1,2.1,0.2,3.2,0.4c1.9,0.3,3.1,1.5,4.3,3.1c2.1,2.9,4.7,5.5,6.9,8.4c1.6,2,3.2,3.5,5.9,3.6c1.2,0,2.5,0.6,3.6,1.1
											c1.4,0.6,2.6,1.5,2.6,3.3c0,0.7-5.8-1.3-7.5-0.7c-2,0.8-3.8,0.3-5.8-0.2c-1.9-0.5-3.8-1-5.8-1.3c-0.8-0.1-1.7,0.1-2.4,0.5
											c-1.3,0.7-2.3,0.7-3.6,0c-1.5-1-3-0.6-4.7,0c-1.6,0.5-3.4,0.2-5.1,0.2c-0.3,0-0.5-0.7-0.7-1.1c-2.5-5.2-4.4-10.7-5.3-16.4
											c-0.8-5.2-4-8.8-8-11.8c-1-0.7-1.8-1.6-2.5-2.6c-1.1-1.5-1.9-3.1-3-4.6c-0.4-0.6-0.9-1.1-1.5-1.4c-1.1-0.6-2-0.1-2.3,1.1
											c-0.5,2-1.1,4.1-1.6,6.1c-0.1,0.4-0.2,0.7-0.1,1.1c0.2,3.6-0.3,7-1.2,10.5c-0.1,0.5-0.2,0.9-0.2,1.4
											c-0.1,1.7-0.3,3.3-2.2,4.3c-0.7,0.3-1.1,1.6-1.2,2.5c-0.1,1.9,0.3,3.8,0.4,5.8c0,1.2,0,2.3-0.2,3.5
											c-0.2,1.1-0.9,1.7-2.1,1.2c-0.7-0.4-1.7-0.8-2.3-1.5c-1.7-2-3.3-4.1-4.9-6.2c-1.1-1.5-2.5-2.1-4.2-2.2
											c-1.6-0.1-2.8,0.9-3.1,2.5c-0.2,1-0.2,2-0.3,3.2c-1-0.9-1.9-1.8-2.9-2.6c-0.8-0.7-1.5-0.6-2.1,0.3
											c-0.1,0.2-0.2,0.3-0.3,0.5c-1.9,2.4-2.7,2.5-4.9,0.2c-1.2-1.3-2.2-2.8-3.4-4.1c-1-1.1-2.2-2-3.3-3l-0.5,0.2
											c-0.2,1.4-0.5,2.8-0.7,4.2c-0.8,4.5-1.7,8.9-2.5,13.4c-0.3,1.6-0.1,1.7,1.4,1.6s3,0,4.5,0.2c0.4,0,0.9,0.7,1,1.1
											c0.4,2.7,0.8,5.4-1.4,7.7c-0.3,0.3-0.6,0.7-0.6,1.1c-0.1,2.1-1.6,2.9-3.3,3.4c-2.3,0.7-4.5,1.2-6.9,0.7
											c-0.8-0.2-1.7,0.2-2.6,0.4c-1,0.3-2,0.7-3.1,1c-0.3,0.1-0.9-0.1-1-0.3c-0.6-0.9-1.4-0.8-2.2-0.5c-0.4,0.2-0.8,0.5-1.2,0.7
											C23.7,108.8,19.6,110,15.3,110.4z M122.5,68.9c-0.5,0.4-1.4,0.9-1.8,0.7c-1.1-0.5-1.9-1.4-3.1-2.2
											c1.2-0.7,4.4-0.5,4.9,0.3C122.8,68,122.7,68.7,122.5,68.9z"/>
									</g>
								</g>
							</g>
						</g>
						<g>
							<g>
								<g>
									<g>
										<defs>
											<rect id="SVGID_82_" x="13.3" y="10.3" width="567.6" height="224"/>
										</defs>
										<clipPath id="SVGID_83_">
											<use xlink:href="#SVGID_82_"  style="overflow:visible;"/>
										</clipPath>
										<path class="st42" d="M94.2,58.8c-0.6,2-0.1,3.7,1.4,5.5C95.2,62.2,96.2,60.2,94.2,58.8 M103.1,83.2
											c0.8-1.3,0.8-3.7,0.1-5C102.3,79.7,102.2,81.6,103.1,83.2z M87.6,64.4c0.2,0,0.3,0,0.5,0l-0.3-3.8
											C87.2,61.8,86.9,63.1,87.6,64.4z M87.2,53.3c-0.2,0.1-0.4,0.1-0.7,0.2c0.2,0.7,0.4,1.5,0.6,2.2c0.3-0.1,0.5-0.2,0.8-0.3
											C87.7,54.7,87.5,54,87.2,53.3z M102.4,75.7c-1.3-4-2.7-7.9-4.1-12.1c-0.1,1.3-0.3,2.3-0.2,3.3c0.1,2.5,0.2,4.9,0.4,7.4
											c0.1,1.2,0.2,2.4-0.8,3.1c-1.3,0.9-1.2,1.9-0.5,3c0.6,1,1.1,1.9,1.9,3.1c0.4-0.8,0.8-1.3,0.9-1.9c0.2-1.8,1-3.2,2.1-4.5
											C102.4,76.8,102.6,76.1,102.4,75.7z"/>
									</g>
								</g>
							</g>
						</g>
						<g>
							<g>
								<g>
									<g>
										<defs>
											<rect id="SVGID_84_" x="13.3" y="10.3" width="567.6" height="224"/>
										</defs>
										<clipPath id="SVGID_85_">
											<use xlink:href="#SVGID_84_"  style="overflow:visible;"/>
										</clipPath>
										<path class="st43" d="M126.7,96.6c-0.7,0,0.4,0.1-0.3,0.1c-0.4,0-0.7,0-1.1,0c-1.7,0-3.4,0-5,0c-1.5,0-1.1,0-2.6-0.1
											c-0.7,0-1.5-0.1-2.2-0.2c-0.3,0-0.4-0.3-0.7-0.5l-0.1-0.1l-0.1-0.4v-0.2c0-0.1,0-0.1,0-0.2v-0.2l0.3-0.3h0.2
											c7,0.1,10.3,0.1,17.2,0.1h0.5v1.2h-0.4l-0.1,0.1c-0.4,0.4-0.8,0.5-1.1,0.2c-0.1,0.1-0.2,0.1-0.3,0.2s-0.2,0-0.3,0
											c-0.3,0-0.6,0.1-0.9,0.1c-0.1,0-0.2-0.1-0.3-0.1c-0.2,0.1-0.4,0.2-0.7,0.2c-0.5,0-1.1,0-1.6,0
											C126.9,96.7,126.8,96.6,126.7,96.6 M125.6,93.2c-0.3,0.2-0.6,0.1-1,0.1c-1.3-0.1-2.5,0.1-3.8,0.2c-1.1,0-2.1-0.1-3.2-0.1
											c-1.2,0-0.5,0-1.7-0.1c-0.6,0-1.1-0.1-1.7-0.2c-0.3-0.1-0.5-0.4-0.7-0.8l-0.1-0.3l0.3-0.7h0.3c4.7-0.3,7.3,0.2,12-0.1l0,0
											c0.5,0,1,0,1.5,0c0.2,0-1.2,0-1,0.1h0.2l0.2,0.3v0.2c0,0.1,0,0.1,0,0.2v0.3l-0.2,0.4h-0.2c-0.8,0.1,0.2,0.2-0.6,0.4
											L125.6,93.2L125.6,93.2z M113.9,87.9c3.5,0.1,5.1,0.1,8.6,0.1h0.2l0.3,0.3v0.2c0,0.1,0,0.1,0,0.2V89l-0.2,0.5h-0.2
											c-0.2,0-0.4,0-0.6,0.1s-0.4,0.2-0.6,0.2s-0.6,0.3-0.8,0.3c-0.5,0.1-0.8-0.1-1.3-0.1c-1.3,0-0.7,0.1-2,0.1
											c-1,0-2-0.1-3-0.2c-0.3,0-0.5-0.3-0.7-0.5l-0.1-0.1l-0.1-0.4l0.1-0.2c0-0.1,0.1-0.2,0.1-0.3v-0.2l0.3-0.2
											C113.9,88,113.9,87.9,113.9,87.9z M135.7,99.4L135.7,99.4c-0.4,0.1-0.8,0.2-1.1,0.3l0,0l-0.8,0.1h-0.1l0,0l-0.1,0.1
											l-0.9,0.1l0,0l0,0c-0.6,0-1.1-0.1-1.7-0.1c-0.8-0.1-1.6,0-2.4,0c-1.2,0.1-0.7,0.1-1.9,0c-1.2,0-2.4-0.1-3.6-0.1
											c-1.6,0.1-3.2-0.4-4.7-0.1c-0.9,0.2,0.1,0-0.8-0.1c-0.3,0-0.5-0.3-0.7-0.5l-0.1-0.1l-0.1-0.4v-0.2c0-0.1,0-0.2,0.1-0.3
											v-0.2l0.3-0.3h0.2c7.9,0.1,12.1,0.2,19.9,0.3h0.5v1.2l-0.4,0.1c0,0-0.2,0.1-0.2,0.2l0,0H137l-0.7,0.1L135.7,99.4
											L135.7,99.4z"/>
									</g>
								</g>
							</g>
						</g>
						<g>
							<g>
								<g>
									<g>
										<defs>
											<rect id="SVGID_86_" x="13.3" y="10.3" width="567.6" height="224"/>
										</defs>
										<clipPath id="SVGID_87_">
											<use xlink:href="#SVGID_86_"  style="overflow:visible;"/>
										</clipPath>
										<path class="st44" d="M72.9,85c0,0.1,0,0.1,0,0.2l0.1,0.3L72.7,86h-0.4c-0.8,0.2-1.6,0.3-2.4,0.5
											c-1.9,0.5-3.7-0.1-5.4,0.3c-1.4,0.3-2.8,0.1-4.2,0c-1.6,0-3.3-0.1-4.9-0.2c-0.5,0-0.7-0.3-1.1-0.5l-0.4-0.2l0.1-0.8
											l0.5-0.1c0.4-0.1,0.6-0.2,1-0.2c1.2,0,2.4,0,3.6-0.1c1.6,0,3.3-0.3,4.9-0.1c1.6,0.2,3.3,0,4.9,0c1.1,0,2.1,0,3.2,0h0.3
											l0.4,0.3L72.9,85z M93.5,97.3c-0.3,0.1-0.4,0.2-0.7,0.2c-0.6,0-1.2,0-1.8,0c-1.3,0-2.5,0.1-3.8,0.2c-1,0-1.9,0-2.9,0
											c-2.4,0-4.8-0.1-7.2-0.2c-0.5,0-0.9-0.2-1.4-0.4l-0.3-0.1l-0.3-0.5l0.1-0.3c0-0.1,0.1-0.2,0.1-0.3l0.1-0.2l0.4-0.3h0.3
											c3.6-0.1,7.2-0.4,10.8-0.1c3,0.2,6-0.5,9,0.1l0.3,0.1l0.3,0.4v0.2c0,0.1,0,0.2,0,0.3v0.3l-0.4,0.4h-0.3
											C95,97.2,94.3,97.2,93.5,97.3z M76.3,91.9c4.1,0,8.2,0,12.2,0h0.2l0.4,0.2l0.1,0.2c0,0.1,0.1,0.1,0.1,0.2l0.1,0.3
											l-0.3,0.5l-0.3,0.1c-0.8,0.2-1.6,0.5-2.5,0.6c-1.4,0.1-2.8,0.1-4.2,0.2c-1.7,0-3.7-0.1-5.3-0.2c-0.6,0-0.7-0.3-1.1-0.5
											l-0.2-0.2l-0.2-0.4l0.1-0.2c0-0.1,0.1-0.2,0.1-0.3l0.1-0.2L76,92L76.3,91.9C76.3,92,76.3,91.9,76.3,91.9z M77.6,89.6
											c-1.8,0.7-3.1,0.1-4.8,0.3c-1.9,0.2-3.8,0.2-5.7,0.2c-1.6,0-3.1-0.1-4.7-0.2c-0.5,0-0.7-0.3-1.1-0.4l-0.2-0.1L60.9,89
											c0.1-0.2,0.1-0.4,0.2-0.6l0.1-0.2l0.4-0.3h0.3c5.8,0,11.5,0,17.3,0h0.2l0.4,0.2l0.1,0.2c0,0.1,0.1,0.1,0.1,0.2l0.1,0.3
											l-0.6,0.5h-0.3C78.7,89.4,78,89.5,77.6,89.6z M68.2,93.2c-1.8,0.8-3.4,0-5.1,0.4c-0.1,0-0.2,0-0.3,0.1h-0.1h-0.1h-0.1
											c-1.9-0.2-3.8-0.5-5.6-0.9l-0.7-0.1l0.2-1.2h0.7c1.3,0,2.6,0,4,0c2.4,0,4.9-0.2,7.3-0.2c0.8,0,1.6,0.2,2.4,0.5l0.6,0.3
											L71,93.2l-0.7-0.3C69.8,92.8,69.1,93.4,68.2,93.2z"/>
									</g>
								</g>
							</g>
						</g>
						<g>
							<g>
								<g>
									<g>
										<defs>
											<rect id="SVGID_88_" x="13.3" y="10.3" width="567.6" height="224"/>
										</defs>
										<clipPath id="SVGID_89_">
											<use xlink:href="#SVGID_88_"  style="overflow:visible;"/>
										</clipPath>
										<path class="st45" d="M146,120.6c2.9-0.7,5.6-7.4,4.4-11.7c-2.2,0.6-5,0.8-7.8-1.4c-0.8,1.4-0.5,4.5-0.3,6.1
											c-17.4-16.9-2.5-28.2,3-28.7c0.4-0.7,0.8-1.3,0.6-2.6c0-6.8,28.3-13,35.8,12.3l0,0c0,0,2.2,5.3,7.6,9.2
											c-0.8,0.9-3.9,0-6.1-1.3c0,0.3,0.7,6,6.5,10.8c-3.3,1.7-6.1-0.6-6.5-1.3c-1.4,29.9-12.1,46.9-42.2,53.5
											c-35.6,6.6-64.8-10.3-71.1-46.8C96.8,152.2,122.5,99.7,146,120.6z"/>
									</g>
								</g>
							</g>
						</g>
						<g>
							<g>
								<g>
									<g>
										<defs>
											<rect id="SVGID_90_" x="13.3" y="10.3" width="567.6" height="224"/>
										</defs>
										<clipPath id="SVGID_91_">
											<use xlink:href="#SVGID_90_"  style="overflow:visible;"/>
										</clipPath>
										<path class="st46" d="M146,120.6c2.9-0.7,5.6-7.4,4.4-11.7c-2.2,0.6-5,0.8-7.8-1.4c-0.8,1.4-0.5,4.5-0.3,6.1
											c-17.4-16.9-2.5-28.2,3-28.7c0.4-0.7,0.8-1.3,0.6-2.6c0-6.8,28.3-13,35.8,12.3l0,0c0,0,2.2,5.3,7.6,9.2
											c-0.8,0.9-3.9,0-6.1-1.3c0,0.3,0.7,6,6.5,10.8c-3.3,1.7-6.1-0.6-6.5-1.3c-4.3,30.5-13.7,47.2-42.2,53.5
											c-35.6,6.6-64.8-10.3-71.1-46.8C96.8,152.2,122.5,99.7,146,120.6"/>
									</g>
								</g>
							</g>
						</g>
						<g>
							<g>
								<g>
									<g>
										<defs>
											<rect id="SVGID_92_" x="13.3" y="10.3" width="567.6" height="224"/>
										</defs>
										<clipPath id="SVGID_93_">
											<use xlink:href="#SVGID_92_"  style="overflow:visible;"/>
										</clipPath>
										<path class="st47" d="M150.4,108.9c13.3-1.8,18.8-15.2,16.4-21.4c-3.4-8.6-13-8.9-20.9-5.3
											C148.8,84,156.3,108.4,150.4,108.9"/>
									</g>
								</g>
							</g>
						</g>
						<g>
							<g>
								<g>
									<g>
										<defs>
											<rect id="SVGID_94_" x="13.3" y="10.3" width="567.6" height="224"/>
										</defs>
										<clipPath id="SVGID_95_">
											<use xlink:href="#SVGID_94_"  style="overflow:visible;"/>
										</clipPath>
										<path class="st48" d="M162.3,88.2c0.1,1.7-1.2,3.2-2.9,3.3c-1.7,0.1-3.2-1.2-3.3-2.9c-0.1-1.7,1.2-3.2,2.9-3.3
											C160.7,85.2,162.2,86.5,162.3,88.2"/>
									</g>
								</g>
							</g>
						</g>
						<g>
							<g>
								<g>
									<g>
										<defs>
											<rect id="SVGID_96_" x="13.3" y="10.3" width="567.6" height="224"/>
										</defs>
										<clipPath id="SVGID_97_">
											<use xlink:href="#SVGID_96_"  style="overflow:visible;"/>
										</clipPath>
										<path class="st49" d="M142.4,107.3c-0.7,1.8,2.2-21.4,2.8-22.2c0.5-0.7,0.9-1.6,0.7-2.9c4.2,2.6,12.3,17,7.2,25.5
											C152.7,108.4,146.7,111.2,142.4,107.3"/>
									</g>
								</g>
							</g>
						</g>
						<g>
							<g>
								<g>
									<g>
										<defs>
											<rect id="SVGID_98_" x="13.3" y="10.3" width="567.6" height="224"/>
										</defs>
										<clipPath id="SVGID_99_">
											<use xlink:href="#SVGID_98_"  style="overflow:visible;"/>
										</clipPath>
										<path class="st50" d="M142.3,113.5c-16.6-15.9-3.8-28,3-28.7c3.1,0.9,6.2,9.1,6.7,15.3c0.2,2.5-2.4,5.4-4.1,5.5
											C146.1,105.6,140.8,104,142.3,113.5"/>
									</g>
								</g>
							</g>
						</g>
						<g>
							<g>
								<g>
									<g>
										<defs>
											<rect id="SVGID_100_" x="13.3" y="10.3" width="567.6" height="224"/>
										</defs>
										<clipPath id="SVGID_101_">
											<use xlink:href="#SVGID_100_"  style="overflow:visible;"/>
										</clipPath>
										<g class="st51">
											<g>
												<g>
													<g>
														<g>
															<defs>
																<rect id="SVGID_102_" x="70" y="115.5" width="83.4" height="47"/>
															</defs>
															<clipPath id="SVGID_103_">
																<use xlink:href="#SVGID_102_"  style="overflow:visible;"/>
															</clipPath>
															<path class="st52" d="M70,118.6c26.8,33.6,52.5-18.9,75.9,2.1c6.1,5,14.7,27.3-3.6,37.6
																C122.1,167.3,77.7,165.7,70,118.6"/>
														</g>
													</g>
												</g>
											</g>
										</g>
									</g>
								</g>
							</g>
						</g>
						<g>
							<g>
								<g>
									<g>
										<defs>
											<rect id="SVGID_104_" x="13.3" y="10.3" width="567.6" height="224"/>
										</defs>
										<clipPath id="SVGID_105_">
											<use xlink:href="#SVGID_104_"  style="overflow:visible;"/>
										</clipPath>
										<path class="st53" d="M70,118.6c19.3,24.2,38.1,3.6,55.9-1.8c6.8-2.1,14.3,9.2,5.6,13.9c7,0,10.5,10.5-1.3,15.8
											c11.3,3.2,4.6,14.6,0,15.4C108,165.4,76.4,157.6,70,118.6"/>
									</g>
								</g>
							</g>
						</g>
						<g>
							<g>
								<g>
									<g>
										<defs>
											<rect id="SVGID_106_" x="13.3" y="10.3" width="567.6" height="224"/>
										</defs>
										<clipPath id="SVGID_107_">
											<use xlink:href="#SVGID_106_"  style="overflow:visible;"/>
										</clipPath>
										<path class="st54" d="M70,118.6c15.3,19.2,30.2,10.3,44.6,3c3.8-1.9,10.1,7.1,1.4,11.8c7,0,10.5,10.5-1.3,15.8
											c11.3,3.2,6.8,13.6,2.2,13.3C97,161.4,75.2,150.3,70,118.6"/>
									</g>
								</g>
							</g>
						</g>
						<g>
							<g>
								<g>
									<g>
										<defs>
											<rect id="SVGID_108_" x="13.3" y="10.3" width="567.6" height="224"/>
										</defs>
										<clipPath id="SVGID_109_">
											<use xlink:href="#SVGID_108_"  style="overflow:visible;"/>
										</clipPath>
										<path class="st55" d="M24,133.2c46-2.3,91.7,6.8,133.3,26.7l1.6,0.8c-15.4,14.1-35.8,22.6-58.3,22.6
											c-34.8,0-64.7-20.5-78.4-50L24,133.2z"/>
									</g>
								</g>
							</g>
						</g>
						<g>
							<g>
								<g>
									<g>
										<defs>
											<rect id="SVGID_110_" x="13.3" y="10.3" width="567.6" height="224"/>
										</defs>
										<clipPath id="SVGID_111_">
											<use xlink:href="#SVGID_110_"  style="overflow:visible;"/>
										</clipPath>
										<path class="st56" d="M155.5,163.6c-39.8-19-84.7-28.6-131.3-26.3c14.4,27.3,43.2,46,76.4,46
											C121.4,183.3,140.6,175.9,155.5,163.6"/>
									</g>
								</g>
							</g>
						</g>
						<g>
							<g>
								<g>
									<g>
										<defs>
											<rect id="SVGID_112_" x="13.3" y="10.3" width="567.6" height="224"/>
										</defs>
										<clipPath id="SVGID_113_">
											<use xlink:href="#SVGID_112_"  style="overflow:visible;"/>
										</clipPath>
										<path class="st57" d="M48.1,171.3c15.9,9.7,34.6,15.3,54.6,15.3c13.7,0,26.8-2.6,38.9-7.4
											C113.4,171.9,84.2,169.4,48.1,171.3"/>
									</g>
								</g>
							</g>
						</g>
						<g>
							<g>
								<g>
									<g>
										<defs>
											<rect id="SVGID_114_" x="13.3" y="10.3" width="567.6" height="224"/>
										</defs>
										<clipPath id="SVGID_115_">
											<use xlink:href="#SVGID_114_"  style="overflow:visible;"/>
										</clipPath>
										<path class="st58" d="M150,167.7c-36.6-13.9-71.5-19.9-117.8-18c15.8,20.4,40.5,33.6,68.4,33.6
											C118.9,183.3,136,177.4,150,167.7"/>
									</g>
								</g>
							</g>
						</g>
						<g>
							<g>
								<g>
									<g>
										<defs>
											<rect id="SVGID_116_" x="13.3" y="10.3" width="567.6" height="224"/>
										</defs>
										<clipPath id="SVGID_117_">
											<use xlink:href="#SVGID_116_"  style="overflow:visible;"/>
										</clipPath>
										<path class="st59" d="M145.6,170.6c-34.1-13.6-65.7-19.1-109.8-16.6c15.8,17.9,39,29.2,64.8,29.2
											C117.1,183.3,132.5,178.6,145.6,170.6"/>
									</g>
								</g>
							</g>
						</g>
						<g>
							<g>
								<g>
									<g>
										<defs>
											<rect id="SVGID_118_" x="13.3" y="10.3" width="567.6" height="224"/>
										</defs>
										<clipPath id="SVGID_119_">
											<use xlink:href="#SVGID_118_"  style="overflow:visible;"/>
										</clipPath>
										<path class="st60" d="M138.7,174.4c-27.2-6.9-55.7-9.7-89.6-8.2c14.4,10.7,32.2,17,51.5,17
											C114.2,183.3,127.2,180.1,138.7,174.4"/>
									</g>
								</g>
							</g>
						</g>
						<g>
							<g>
								<g>
									<g>
										<defs>
											<rect id="SVGID_120_" x="13.3" y="10.3" width="567.6" height="224"/>
										</defs>
										<clipPath id="SVGID_121_">
											<use xlink:href="#SVGID_120_"  style="overflow:visible;"/>
										</clipPath>
										<path class="st61" d="M55.6,170.7c0.2,0.1,0.3,0.2,0.5,0.3c0.4,0.2,0.7,0.4,1.1,0.7c0.2,0.1,0.5,0.3,0.7,0.4
											c0.4,0.2,0.8,0.4,1.2,0.6c0.2,0.1,0.4,0.2,0.6,0.4c0.4,0.2,0.8,0.4,1.2,0.6c0.2,0.1,0.4,0.2,0.6,0.3
											c0.4,0.2,0.9,0.4,1.3,0.6l0.5,0.3c0.5,0.2,0.9,0.4,1.4,0.6l0.5,0.2c0.5,0.2,1,0.4,1.5,0.6l0.4,0.2c0.5,0.2,1,0.4,1.6,0.6
											l0.4,0.1c0.5,0.2,1.1,0.4,1.6,0.6l0.3,0.1c0.6,0.2,1.1,0.4,1.7,0.6l0.3,0.1c0.6,0.2,1.1,0.4,1.7,0.6l0.3,0.1
											c0.6,0.2,1.2,0.4,1.8,0.5l0.2,0.1c0.6,0.2,1.3,0.3,1.9,0.5H79c0.6,0.2,1.3,0.3,1.9,0.5H81c0.7,0.2,1.3,0.3,2,0.4h0.1
											c0.7,0.1,1.3,0.3,2,0.4h0.1c0.7,0.1,1.3,0.2,2,0.3h0.1c0.7,0.1,1.4,0.2,2,0.3h0.1c0.7,0.1,1.4,0.2,2,0.2h0.1
											c0.7,0.1,1.4,0.1,2.1,0.2h0.1c0.7,0.1,1.4,0.1,2.1,0.1l0,0c1.5,0.1,2.9,0.1,4.4,0.1s3,0,4.4-0.1l0,0
											c0.7,0,1.4-0.1,2.2-0.1l0,0c0.7-0.1,1.4-0.1,2.2-0.2l0,0c0.7-0.1,1.4-0.2,2.1-0.2l0,0c0.7-0.1,1.4-0.2,2.1-0.3h0.1
											c0.7-0.1,1.4-0.2,2-0.3h0.1c0.7-0.1,1.3-0.2,2-0.4h0.1c0.7-0.1,1.3-0.3,2-0.4h0.1c0.7-0.2,1.3-0.3,2-0.5h0.2
											c0.6-0.2,1.2-0.3,1.8-0.5l0.2-0.1c0.6-0.2,1.2-0.3,1.8-0.5l0.2-0.1c0.6-0.2,1.2-0.4,1.7-0.6l0.3-0.1
											c0.6-0.2,1.1-0.4,1.7-0.6l0.3-0.1c0.6-0.2,1.1-0.4,1.6-0.6l0.4-0.1l0.2-0.1C109.4,171.3,85.4,169.1,55.6,170.7"/>
									</g>
								</g>
							</g>
						</g>
					</g>
				</g>
			</g>
		</g>
	</g>
</g>
</svg>
