<?xml version="1.0" encoding="UTF-8"?>
<!DOCTYPE svg PUBLIC "-//W3C//DTD SVG 1.1//EN" "http://www.w3.org/Graphics/SVG/1.1/DTD/svg11.dtd">
<!-- Creator: CorelDRAW 2021 (64-Bit) -->
<svg xmlns="http://www.w3.org/2000/svg" xml:space="preserve" width="210mm" height="297mm" version="1.1" style="shape-rendering:geometricPrecision; text-rendering:geometricPrecision; image-rendering:optimizeQuality; fill-rule:evenodd; clip-rule:evenodd"
viewBox="0 0 21000 29700"
 xmlns:xlink="http://www.w3.org/1999/xlink"
 xmlns:xodm="http://www.corel.com/coreldraw/odm/2003">
 <defs>
  <style type="text/css">
   <![CDATA[
    .fil0 {fill:black}
   ]]>
  </style>
 </defs>
 <g id="Capa_x0020_1">
  <metadata id="CorelCorpID_0Corel-Layer"/>
  <path class="fil0" d="M10663.17 20540.38c310.76,-152.48 1947.82,-2202.91 2155.85,-2489.17 587.87,-808.92 1318.52,-1797.07 1718.49,-2903.17 489.39,-1353.38 16.7,-2705.71 -674.26,-3555.41 -1390.8,-1710.31 -3810.22,-2069.97 -5720.38,-616.55 -1017.28,774.03 -1855.04,2542.28 -1300.27,4109.49 621.81,1756.58 1876.07,3137.06 2999.43,4514.16 206.34,252.95 711.07,769.48 821.14,940.65zm-298.45 -8347.72c-900.59,168.14 -1721.76,1044.66 -1520.65,2162.67 164.3,913.39 1057.84,1760.77 2208.71,1537.79 894.28,-173.26 1718.59,-1057.06 1505.19,-2181.26 -176.11,-927.74 -1055.78,-1731.57 -2193.25,-1519.2z"/>
 </g>
</svg>
