<?xml version="1.0" encoding="UTF-8"?>
<!DOCTYPE svg PUBLIC "-//W3C//DTD SVG 1.1//EN" "http://www.w3.org/Graphics/SVG/1.1/DTD/svg11.dtd">
<!-- Creator: CorelDRAW 2021 (64-Bit) -->
<svg xmlns="http://www.w3.org/2000/svg" xml:space="preserve" width="210mm" height="297mm" version="1.1" style="shape-rendering:geometricPrecision; text-rendering:geometricPrecision; image-rendering:optimizeQuality; fill-rule:evenodd; clip-rule:evenodd"
viewBox="0 0 21000 29700"
 xmlns:xlink="http://www.w3.org/1999/xlink"
 xmlns:xodm="http://www.corel.com/coreldraw/odm/2003">
 <defs>
  <style type="text/css">
   <![CDATA[
    .fil0 {fill:#1363AB}
    .fil1 {fill:#FEFEFE}
   ]]>
  </style>
 </defs>
 <g id="Capa_x0020_1">
  <metadata id="CorelCorpID_0Corel-Layer"/>
  <circle class="fil0" cx="11971.05" cy="25998.14" r="458.34"/>
  <path class="fil1" d="M11695.38 26293.36c9.22,-1.74 21.25,-5.85 30.63,-8.62 10.23,-3.03 20.19,-5.92 30.26,-8.74l76.03 -21.87c17.19,-5.07 8.82,-1.48 41.4,11.89 64.4,26.43 133.97,28.61 199.92,8.54 20.18,-6.15 37.35,-14.35 54.53,-23.43 28.67,-15.15 65.89,-45.74 85.41,-71.47 5.58,-7.36 11.08,-13.74 16.61,-22.37 29.24,-45.68 45.08,-88.29 49.07,-147.82 6.63,-98.79 -40.88,-180.56 -87.95,-225.91l-20.53 -18.47c-57.09,-46.18 -131.93,-71.55 -208.64,-64.84 -46.63,4.07 -84.64,16.61 -120.43,36.56 -14.8,8.24 -34.18,21.07 -46.15,31.84l-29.93 28.98c-2.98,3.77 -6.02,7.32 -9.07,10.97 -47.12,56.24 -78.2,147.51 -59.66,243.51 5.26,27.26 17.83,61.92 31.66,85.3 5.59,9.46 2.34,11.92 -2.01,29.94 -8.36,34.72 -25.17,95.03 -31.15,126.01zm71.33 -73.33l73.37 -21.06c13.97,-4.06 11.54,-1.74 22.04,4.69 83.75,51.37 190.78,46.06 269.7,-10.83 13.17,-9.49 31.44,-25.89 41.64,-38.3 2.83,-3.45 4.45,-5.17 7.25,-8.72 8.04,-10.19 18.54,-25.3 25.09,-38.89 15.61,-32.34 24.66,-60.07 27,-101.14 2.19,-38.24 -6.25,-75.95 -19.49,-107.35 -67.25,-159.56 -287.68,-203.16 -407.89,-64.93 -45.42,52.24 -68.31,119.72 -58.95,192.9 4.8,37.48 16.95,66.54 33.22,94.81 9.49,16.48 10.2,5.45 -0.57,47.74 -3.61,14.17 -10.94,37.98 -12.41,51.08z"/>
  <path class="fil1" d="M12021.37 26067.71c-22.95,-8.11 -50.73,-25.88 -65.88,-38.39 -14.49,-11.95 -42.42,-41.47 -44.11,-60.01 3.65,-3.18 4.67,-4.87 7.61,-8.31 8.09,-9.45 18.74,-15.49 16.71,-31.86 -1.13,-9.15 -18.21,-61.45 -30.13,-68.73 -22.24,-13.58 -51,14.11 -60.43,30.78 -19.08,33.71 -0.28,71.17 13.84,100.75 12.95,27.15 42.29,65.68 65.22,82.71 26.73,19.85 37.1,29.06 73.14,42.82 31.39,11.99 75.47,23 108.35,6.26 14.44,-7.35 23.59,-19.93 25.86,-40.29 2.54,-22.75 -9.46,-25.83 -29.32,-36.93 -38.35,-21.44 -41.17,-20.19 -63.94,4.85 -3.17,3.48 -12.89,13.89 -16.92,16.35z"/>
 </g>
</svg>
